<svg width="1440" height="1024" viewBox="0 0 1440 1024" fill="none" xmlns="http://www.w3.org/2000/svg">
<g clip-path="url(#clip0_499_2)">
<rect width="1440" height="1024" fill="black"/>
<path fill-rule="evenodd" clip-rule="evenodd" d="M1870.18 1318.03C1844.99 1411.47 1754.87 1464.09 1673.19 1515.98C1573.97 1579.01 1474.6 1662.16 1358.67 1642.97C1227.58 1621.27 1113.74 1530.66 1051.74 1413.12C987.171 1290.69 947.453 1127.58 1027.13 1014.36C1102.72 906.96 1269.71 963.133 1395.33 924.905C1487.34 896.903 1562.89 792.234 1653.77 823.663C1744.86 855.161 1756.57 974.885 1795.22 1063.2C1832.13 1147.51 1894.14 1229.14 1870.18 1318.03Z" stroke="url(#paint0_linear_499_2)" stroke-width="2"/>
<path fill-rule="evenodd" clip-rule="evenodd" d="M1959.55 950.499C1997.87 1039.37 1959.94 1136.6 1928.17 1228C1889.58 1339.03 1863.37 1465.92 1760.6 1522.91C1644.4 1587.35 1498.91 1587.07 1377.3 1533.48C1250.64 1477.66 1118.19 1374.53 1110.28 1236.31C1102.79 1105.19 1268.54 1045.46 1343.22 937.461C1397.93 858.354 1392.1 729.399 1482.84 697.563C1573.79 665.657 1657.34 752.199 1742.5 797.382C1823.8 840.521 1923.1 865.963 1959.55 950.499Z" stroke="url(#paint1_linear_499_2)" stroke-width="2"/>
<path fill-rule="evenodd" clip-rule="evenodd" d="M639.338 183.285C597.668 191.038 559.819 165.415 523.861 142.99C480.18 115.747 428.527 92.2572 414.146 42.8406C397.887 -13.0321 412.104 -75.145 446.779 -121.889C482.895 -170.575 539.779 -217.15 599.577 -207.13C656.305 -197.624 665.751 -121.043 704.637 -78.681C733.122 -47.6498 788.763 -37.6412 793.565 4.19992C798.378 46.1335 753.319 73.4319 725.769 105.423C699.465 135.966 678.975 175.91 639.338 183.285Z" stroke="url(#paint2_linear_499_2)" stroke-width="2"/>
<path fill-rule="evenodd" clip-rule="evenodd" d="M322.213 -119.755C335.63 -159.96 376.388 -180.645 413.433 -201.226C458.434 -226.227 504.018 -260.02 554.211 -248.645C610.963 -235.783 658.399 -193.24 682.477 -140.253C707.554 -85.0642 720.719 -12.7336 682.969 34.7129C647.157 79.7232 575.595 50.8645 519.693 64.3426C478.744 74.2156 443.019 118.031 404.094 101.95C365.083 85.8336 363.048 33.1895 348.421 -6.41459C334.456 -44.2271 309.45 -81.5108 322.213 -119.755Z" stroke="url(#paint3_linear_499_2)" stroke-width="2"/>
<path fill-rule="evenodd" clip-rule="evenodd" d="M487.378 -188.102C523.781 -188.476 551.998 -161.181 579.089 -136.872C612 -107.342 652.211 -79.8029 657.043 -35.8624C662.505 13.8189 641.258 64.2558 604.985 98.6543C567.205 134.482 512.168 165.441 463.067 148.088C416.486 131.626 419.862 65.4373 393.252 23.8271C373.76 -6.65293 328.174 -23.3788 330.321 -59.4888C332.474 -95.6787 374.645 -112.085 402.701 -135.06C429.488 -156.995 452.75 -187.746 487.378 -188.102Z" stroke="url(#paint4_linear_499_2)" stroke-width="2"/>
<path fill-rule="evenodd" clip-rule="evenodd" d="M-64.5165 1176.26C-143.034 1214.46 -232.223 1184.28 -315.907 1159.41C-417.566 1129.2 -533.005 1110.81 -588.602 1020.53C-651.463 918.461 -657.21 787.322 -613.916 675.513C-568.824 559.06 -481.33 435.437 -357.084 422.621C-239.217 410.464 -178.558 557.391 -78.1504 620.252C-4.60027 666.298 111.382 655.734 143.812 736.206C176.313 816.856 101.757 895.725 64.5426 974.334C29.0115 1049.39 10.1711 1139.93 -64.5165 1176.26Z" stroke="url(#paint5_linear_499_2)" stroke-width="2"/>
<path fill-rule="evenodd" clip-rule="evenodd" d="M-589.728 1094.18C-645.465 1026.97 -637.311 933.165 -633.014 845.971C-627.794 740.047 -637.321 623.541 -562.816 548.109C-478.578 462.821 -352.548 426.119 -233.659 441.643C-109.832 457.811 31.0229 513.469 72.9567 631.125C112.737 742.74 -15.5983 836.533 -52.8353 948.99C-80.112 1031.37 -42.3269 1141.53 -112.804 1192.13C-183.438 1242.84 -277.746 1189.13 -362.941 1171.63C-444.282 1154.93 -536.709 1158.11 -589.728 1094.18Z" stroke="url(#paint6_linear_499_2)" stroke-width="2"/>
<path fill-rule="evenodd" clip-rule="evenodd" d="M178.333 861.53C183.581 948.687 121.571 1019.54 66.579 1087.34C-0.225292 1169.71 -61.386 1269.33 -166.066 1286.16C-284.422 1305.18 -407.782 1260.31 -494.519 1177.54C-584.859 1091.32 -665.6 963.183 -629.902 843.488C-596.038 729.938 -437.082 730.11 -340.588 661.393C-269.905 611.057 -235.289 499.858 -148.532 500.685C-61.5835 501.514 -17.2411 600.572 41.1482 665.032C96.8961 726.575 173.34 778.624 178.333 861.53Z" stroke="url(#paint7_linear_499_2)" stroke-width="2"/>
</g>
<defs>
<linearGradient id="paint0_linear_499_2" x1="1854.94" y1="1362.24" x2="1003.62" y2="1055.6" gradientUnits="userSpaceOnUse">
<stop stop-color="#E40303"/>
<stop offset="0.229211" stop-color="#FF8C00"/>
<stop offset="0.444575" stop-color="#FFED00"/>
<stop offset="0.639748" stop-color="#008026"/>
<stop offset="0.828191" stop-color="#004DFF"/>
<stop offset="1" stop-color="#750787"/>
</linearGradient>
<linearGradient id="paint1_linear_499_2" x1="1975.08" y1="994.615" x2="1117.47" y2="1283.23" gradientUnits="userSpaceOnUse">
<stop stop-color="#E40303"/>
<stop offset="0.229211" stop-color="#FF8C00"/>
<stop offset="0.444575" stop-color="#FFED00"/>
<stop offset="0.639748" stop-color="#008026"/>
<stop offset="0.828191" stop-color="#004DFF"/>
<stop offset="1" stop-color="#750787"/>
</linearGradient>
<linearGradient id="paint2_linear_499_2" x1="618.991" y1="185.643" x2="578.84" y2="-208.606" gradientUnits="userSpaceOnUse">
<stop stop-color="#E40303"/>
<stop offset="0.229211" stop-color="#FF8C00"/>
<stop offset="0.444575" stop-color="#FFED00"/>
<stop offset="0.639748" stop-color="#008026"/>
<stop offset="0.828191" stop-color="#004DFF"/>
<stop offset="1" stop-color="#750787"/>
</linearGradient>
<linearGradient id="paint3_linear_499_2" x1="330.013" y1="-138.695" x2="694.312" y2="17.2901" gradientUnits="userSpaceOnUse">
<stop stop-color="#E40303"/>
<stop offset="0.229211" stop-color="#FF8C00"/>
<stop offset="0.444575" stop-color="#FFED00"/>
<stop offset="0.639748" stop-color="#008026"/>
<stop offset="0.828191" stop-color="#004DFF"/>
<stop offset="1" stop-color="#750787"/>
</linearGradient>
<linearGradient id="paint4_linear_499_2" x1="504.941" y1="-187.077" x2="480.391" y2="152.415" gradientUnits="userSpaceOnUse">
<stop stop-color="#E40303"/>
<stop offset="0.229211" stop-color="#FF8C00"/>
<stop offset="0.444575" stop-color="#FFED00"/>
<stop offset="0.639748" stop-color="#008026"/>
<stop offset="0.828191" stop-color="#004DFF"/>
<stop offset="1" stop-color="#750787"/>
</linearGradient>
<linearGradient id="paint5_linear_499_2" x1="-103.637" y1="1192.08" x2="-399.077" y2="431.036" gradientUnits="userSpaceOnUse">
<stop stop-color="#E40303"/>
<stop offset="0.229211" stop-color="#FF8C00"/>
<stop offset="0.444575" stop-color="#FFED00"/>
<stop offset="0.639748" stop-color="#008026"/>
<stop offset="0.828191" stop-color="#004DFF"/>
<stop offset="1" stop-color="#750787"/>
</linearGradient>
<linearGradient id="paint6_linear_499_2" x1="-614.374" y1="1059.93" x2="54.8175" y2="592.328" gradientUnits="userSpaceOnUse">
<stop stop-color="#E40303"/>
<stop offset="0.229211" stop-color="#FF8C00"/>
<stop offset="0.444575" stop-color="#FFED00"/>
<stop offset="0.639748" stop-color="#008026"/>
<stop offset="0.828191" stop-color="#004DFF"/>
<stop offset="1" stop-color="#750787"/>
</linearGradient>
<linearGradient id="paint7_linear_499_2" x1="177.977" y1="903.725" x2="-638.195" y2="885.505" gradientUnits="userSpaceOnUse">
<stop stop-color="#E40303"/>
<stop offset="0.229211" stop-color="#FF8C00"/>
<stop offset="0.444575" stop-color="#FFED00"/>
<stop offset="0.639748" stop-color="#008026"/>
<stop offset="0.828191" stop-color="#004DFF"/>
<stop offset="1" stop-color="#750787"/>
</linearGradient>
<clipPath id="clip0_499_2">
<rect width="1440" height="1024" fill="white"/>
</clipPath>
</defs>
</svg>
