<svg width="1440" height="1024" viewBox="0 0 1440 1024" fill="none" xmlns="http://www.w3.org/2000/svg">
<g clip-path="url(#clip0_52_53)">
<rect width="1440" height="1024" fill="white"/>
<path fill-rule="evenodd" clip-rule="evenodd" d="M-94.1058 901.758C-102.915 963.356 -108.221 1030.76 -69.823 1079.68C-33.5425 1125.9 32.6771 1123.1 89.9045 1136.18C147.744 1149.4 206.037 1179.65 260.066 1155.1C319.547 1128.08 374.049 1071.61 375.963 1006.22C377.771 944.41 297.875 918.253 268.59 863.814C234.098 799.699 258.53 700.506 193.729 667.468C126.52 633.203 40.4745 670.037 -18.0509 717.676C-71.5389 761.214 -84.3325 833.421 -94.1058 901.758Z" stroke="url(#paint0_linear_52_53)" stroke-width="1.5"/>
<path fill-rule="evenodd" clip-rule="evenodd" d="M8.18552 1205.04C55.9969 1244.77 110.582 1284.55 172.29 1277.35C230.595 1270.55 262.84 1212.55 303.901 1170.53C345.402 1128.07 401.625 1094.12 408.991 1035.15C417.102 970.239 397.551 894.178 342.905 858.348C291.25 824.479 227.21 879.011 165.568 875.545C92.97 871.462 21.3354 798.731 -40.6669 836.777C-104.973 876.237 -118.625 968.962 -108.692 1043.84C-99.6135 1112.27 -44.8571 1160.96 8.18552 1205.04Z" stroke="url(#paint1_linear_52_53)" stroke-width="1.5"/>
<path fill-rule="evenodd" clip-rule="evenodd" d="M-127.106 977.628C-135.915 1039.23 -141.221 1106.63 -102.823 1155.55C-66.5425 1201.77 -0.322894 1198.96 56.9045 1212.05C114.744 1225.27 173.037 1255.52 227.066 1230.97C286.547 1203.95 341.049 1147.48 342.963 1082.09C344.771 1020.28 264.875 994.123 235.59 939.684C201.098 875.568 225.53 776.375 160.729 743.337C93.5202 709.072 7.47448 745.907 -51.0509 793.545C-104.539 837.083 -117.332 909.29 -127.106 977.628Z" stroke="url(#paint2_linear_52_53)" stroke-width="1.5"/>
<path fill-rule="evenodd" clip-rule="evenodd" d="M-24.8145 1280.91C22.9969 1320.64 77.5818 1360.42 139.29 1353.22C197.595 1346.42 229.84 1288.42 270.901 1246.4C312.402 1203.94 368.625 1169.98 375.991 1111.02C384.102 1046.11 364.551 970.047 309.905 934.217C258.25 900.348 194.21 954.88 132.568 951.414C59.97 947.331 -11.6646 874.6 -73.6669 912.646C-137.973 952.107 -151.625 1044.83 -141.692 1119.71C-132.614 1188.14 -77.8571 1236.83 -24.8145 1280.91Z" stroke="url(#paint3_linear_52_53)" stroke-width="1.5"/>
<path fill-rule="evenodd" clip-rule="evenodd" d="M-167.106 1033.63C-175.915 1095.23 -181.221 1162.63 -142.823 1211.55C-106.542 1257.77 -40.3229 1254.96 16.9045 1268.05C74.7438 1281.27 133.037 1311.52 187.066 1286.97C246.547 1259.95 301.049 1203.48 302.963 1138.09C304.771 1076.28 224.875 1050.12 195.59 995.684C161.098 931.568 185.53 832.375 120.729 799.337C53.5202 765.072 -32.5255 801.907 -91.0509 849.545C-144.539 893.083 -157.332 965.29 -167.106 1033.63Z" stroke="url(#paint4_linear_52_53)" stroke-width="1.5"/>
<path fill-rule="evenodd" clip-rule="evenodd" d="M-64.8145 1336.91C-17.0031 1376.64 37.5818 1416.42 99.2899 1409.22C157.595 1402.42 189.84 1344.42 230.901 1302.4C272.402 1259.94 328.625 1225.98 335.991 1167.02C344.102 1102.11 324.551 1026.05 269.905 990.217C218.25 956.348 154.21 1010.88 92.5684 1007.41C19.97 1003.33 -51.6646 930.6 -113.667 968.646C-177.973 1008.11 -191.625 1100.83 -181.692 1175.71C-172.614 1244.14 -117.857 1292.83 -64.8145 1336.91Z" stroke="url(#paint5_linear_52_53)" stroke-width="1.5"/>
<path fill-rule="evenodd" clip-rule="evenodd" d="M1330.07 121.914C1299.4 70.253 1238.67 36.5984 1238.55 -25.2932C1238.41 -99.9189 1261.87 -187.453 1329.4 -230.406C1396.01 -272.77 1474.71 -235.348 1548.55 -222.452C1617.27 -210.451 1702.38 -216.301 1736.6 -159.291C1770.25 -103.214 1722.71 -30.9786 1703.39 35.5511C1685.77 96.2552 1678.85 160.342 1630.77 205.26C1574.62 257.724 1497.43 312.547 1427.63 293.2C1359.25 274.247 1364.93 180.635 1330.07 121.914Z" stroke="url(#paint6_linear_52_53)" stroke-width="2"/>
<path fill-rule="evenodd" clip-rule="evenodd" d="M1413.47 -218.16C1479.73 -222.139 1544.23 -261.131 1604.44 -233.187C1677.05 -199.493 1749.84 -138.87 1756.24 -59.0864C1762.55 19.6015 1684.99 72.9242 1633.8 133.025C1586.17 188.96 1547.31 267.627 1473.99 272.349C1401.87 276.993 1356.55 201.793 1302 154.394C1252.23 111.144 1193.57 75.914 1175.08 12.6208C1153.48 -61.307 1140.6 -155.089 1195.93 -208.659C1250.15 -261.139 1338.15 -213.638 1413.47 -218.16Z" stroke="url(#paint7_linear_52_53)" stroke-width="2"/>
<path fill-rule="evenodd" clip-rule="evenodd" d="M1598.32 138.029C1540.42 173.556 1499.5 237.997 1432.99 243.448C1352.8 250.021 1260.58 233.79 1219.71 169.059C1179.4 105.217 1225.76 22.2566 1245.39 -53.6703C1263.67 -124.335 1264.04 -210.072 1327.97 -249.653C1390.86 -288.586 1464.75 -246.634 1534.73 -232.797C1598.58 -220.171 1666.9 -218.673 1711.4 -173.83C1763.38 -121.453 1816.25 -47.9655 1790 24.4244C1764.29 95.3423 1664.15 97.6475 1598.32 138.029Z" stroke="url(#paint8_linear_52_53)"/>
<path fill-rule="evenodd" clip-rule="evenodd" d="M1246.53 148.54C1215.86 96.8785 1155.12 63.2239 1155 1.33233C1154.86 -73.2934 1178.32 -160.827 1245.86 -203.781C1312.47 -246.144 1391.16 -208.722 1465 -195.827C1533.72 -183.825 1618.83 -189.676 1653.05 -132.666C1686.71 -76.5882 1639.16 -4.3531 1619.85 62.1766C1602.23 122.881 1595.3 186.967 1547.22 231.885C1491.07 284.35 1413.88 339.172 1344.08 319.826C1275.7 300.873 1281.39 207.26 1246.53 148.54Z" stroke="url(#paint9_linear_52_53)" stroke-width="2"/>
<path fill-rule="evenodd" clip-rule="evenodd" d="M1329.92 -191.535C1396.18 -195.513 1460.68 -234.506 1520.9 -206.562C1593.5 -172.868 1666.29 -112.245 1672.69 -32.4609C1679 46.227 1601.44 99.5497 1550.26 159.65C1502.62 215.585 1463.76 294.252 1390.44 298.974C1318.33 303.619 1273.01 228.419 1218.46 181.019C1168.68 137.77 1110.02 102.54 1091.53 39.2463C1069.93 -34.6815 1057.05 -128.464 1112.39 -182.034C1166.6 -234.514 1254.61 -187.012 1329.92 -191.535Z" stroke="url(#paint10_linear_52_53)" stroke-width="2"/>
<path fill-rule="evenodd" clip-rule="evenodd" d="M1514.78 164.654C1456.87 200.181 1415.96 264.622 1349.45 270.073C1269.25 276.646 1177.03 260.416 1136.16 195.685C1095.85 131.843 1142.22 48.8821 1161.85 -27.0448C1180.12 -97.7091 1180.49 -183.446 1244.42 -223.027C1307.31 -261.961 1381.21 -220.009 1451.18 -206.171C1515.03 -193.545 1583.35 -192.048 1627.85 -147.205C1679.83 -94.8276 1732.7 -21.34 1706.46 51.0498C1680.74 121.968 1580.6 124.273 1514.78 164.654Z" stroke="url(#paint11_linear_52_53)"/>
</g>
<defs>
<linearGradient id="paint0_linear_52_53" x1="155.496" y1="654.933" x2="128.399" y2="1159.97" gradientUnits="userSpaceOnUse">
<stop stop-color="#ED2228"/>
<stop offset="0.192708" stop-color="#F05B25"/>
<stop offset="0.354167" stop-color="#F9EC22"/>
<stop offset="0.572917" stop-color="#44B64D"/>
<stop offset="0.739583" stop-color="#2BA7E1"/>
<stop offset="0.911458" stop-color="#91298C"/>
</linearGradient>
<linearGradient id="paint1_linear_52_53" x1="-71.3273" y1="862.863" x2="344.762" y2="1149.4" gradientUnits="userSpaceOnUse">
<stop stop-color="#ED2228"/>
<stop offset="0.192708" stop-color="#F05B25"/>
<stop offset="0.354167" stop-color="#F9EC22"/>
<stop offset="0.572917" stop-color="#44B64D"/>
<stop offset="0.739583" stop-color="#2BA7E1"/>
<stop offset="0.911458" stop-color="#91298C"/>
</linearGradient>
<linearGradient id="paint2_linear_52_53" x1="122.496" y1="730.802" x2="95.3989" y2="1235.84" gradientUnits="userSpaceOnUse">
<stop stop-color="#ED2228"/>
<stop offset="0.192708" stop-color="#F05B25"/>
<stop offset="0.354167" stop-color="#F9EC22"/>
<stop offset="0.572917" stop-color="#44B64D"/>
<stop offset="0.739583" stop-color="#2BA7E1"/>
<stop offset="0.911458" stop-color="#91298C"/>
</linearGradient>
<linearGradient id="paint3_linear_52_53" x1="-104.327" y1="938.732" x2="311.762" y2="1225.27" gradientUnits="userSpaceOnUse">
<stop stop-color="#ED2228"/>
<stop offset="0.192708" stop-color="#F05B25"/>
<stop offset="0.354167" stop-color="#F9EC22"/>
<stop offset="0.572917" stop-color="#44B64D"/>
<stop offset="0.739583" stop-color="#2BA7E1"/>
<stop offset="0.911458" stop-color="#91298C"/>
</linearGradient>
<linearGradient id="paint4_linear_52_53" x1="82.4963" y1="786.802" x2="55.3989" y2="1291.84" gradientUnits="userSpaceOnUse">
<stop stop-color="#ED2228"/>
<stop offset="0.192708" stop-color="#F05B25"/>
<stop offset="0.354167" stop-color="#F9EC22"/>
<stop offset="0.572917" stop-color="#44B64D"/>
<stop offset="0.739583" stop-color="#2BA7E1"/>
<stop offset="0.911458" stop-color="#91298C"/>
</linearGradient>
<linearGradient id="paint5_linear_52_53" x1="-144.327" y1="994.732" x2="271.762" y2="1281.27" gradientUnits="userSpaceOnUse">
<stop stop-color="#ED2228"/>
<stop offset="0.192708" stop-color="#F05B25"/>
<stop offset="0.354167" stop-color="#F9EC22"/>
<stop offset="0.572917" stop-color="#44B64D"/>
<stop offset="0.739583" stop-color="#2BA7E1"/>
<stop offset="0.911458" stop-color="#91298C"/>
</linearGradient>
<linearGradient id="paint6_linear_52_53" x1="1289.03" y1="123.25" x2="1724.09" y2="-177.693" gradientUnits="userSpaceOnUse">
<stop offset="0.202744" stop-color="#D6006F"/>
<stop offset="0.536847" stop-color="#724E94"/>
<stop offset="0.819284" stop-color="#0038A7"/>
</linearGradient>
<linearGradient id="paint7_linear_52_53" x1="1433.65" y1="-255.422" x2="1498.42" y2="269.516" gradientUnits="userSpaceOnUse">
<stop offset="0.202744" stop-color="#D6006F"/>
<stop offset="0.536847" stop-color="#724E94"/>
<stop offset="0.819284" stop-color="#0038A7"/>
</linearGradient>
<linearGradient id="paint8_linear_52_53" x1="1596.55" y1="179.501" x2="1307.22" y2="-235.391" gradientUnits="userSpaceOnUse">
<stop offset="0.202744" stop-color="#D6006F"/>
<stop offset="0.536458" stop-color="#705092"/>
<stop offset="0.819284" stop-color="#0038A7"/>
</linearGradient>
<linearGradient id="paint9_linear_52_53" x1="1205.48" y1="149.876" x2="1640.54" y2="-151.068" gradientUnits="userSpaceOnUse">
<stop offset="0.202744" stop-color="#D6006F"/>
<stop offset="0.536847" stop-color="#724E94"/>
<stop offset="0.819284" stop-color="#0038A7"/>
</linearGradient>
<linearGradient id="paint10_linear_52_53" x1="1350.11" y1="-228.796" x2="1414.88" y2="296.141" gradientUnits="userSpaceOnUse">
<stop offset="0.202744" stop-color="#D6006F"/>
<stop offset="0.536847" stop-color="#724E94"/>
<stop offset="0.819284" stop-color="#0038A7"/>
</linearGradient>
<linearGradient id="paint11_linear_52_53" x1="1513" y1="206.127" x2="1223.67" y2="-208.766" gradientUnits="userSpaceOnUse">
<stop offset="0.202744" stop-color="#D6006F"/>
<stop offset="0.536458" stop-color="#705092"/>
<stop offset="0.819284" stop-color="#0038A7"/>
</linearGradient>
<clipPath id="clip0_52_53">
<rect width="1440" height="1024" fill="white"/>
</clipPath>
</defs>
</svg>
