<svg width="451" height="240" viewBox="0 0 451 240" fill="none" xmlns="http://www.w3.org/2000/svg">
<path fill-rule="evenodd" clip-rule="evenodd" d="M122.536 309.953C100.876 295.639 68.4629 288.493 62.1214 263.337C55.5879 237.421 83.8623 216.235 92.5428 190.978C99.1081 171.876 92.621 147.726 106.8 133.341C120.911 119.024 146.652 128.588 164.022 118.457C190.134 103.228 201.289 58.3435 231.458 60.6369C259.138 62.7411 260.679 106.052 278.701 127.175C296.43 147.956 330.849 156.523 336.115 183.306C341.365 210.008 317.097 232.652 304.14 256.559C292.165 278.655 282.719 302.252 263.121 317.993C242.227 334.776 217.052 349.555 190.267 348.023C163.886 346.515 144.59 324.527 122.536 309.953Z" stroke="url(#paint0_linear_572_13)" stroke-width="2"/>
<path fill-rule="evenodd" clip-rule="evenodd" d="M132.867 133.975C152.18 116.624 167.267 87.0602 193.209 87.266C219.935 87.478 233.308 120.181 255.56 134.949C272.39 146.118 297.395 145.93 307.741 163.278C318.037 180.543 302.292 203.041 307.716 222.403C315.869 251.511 356.491 273.623 346.665 302.239C337.65 328.495 295.35 319.066 270.365 331.179C245.786 343.096 228.817 374.243 201.571 372.586C174.408 370.934 158.615 341.74 138.747 323.175C120.384 306.016 99.9315 290.925 89.6403 267.992C78.6679 243.541 70.7132 215.453 78.949 189.92C87.0606 164.771 113.203 151.642 132.867 133.975Z" stroke="url(#paint1_linear_572_13)" stroke-width="2"/>
<path fill-rule="evenodd" clip-rule="evenodd" d="M301.746 103.069C325.309 113.97 358.428 116.171 368.473 140.089C378.822 164.731 354.047 189.921 349.256 216.194C345.632 236.066 355.67 258.968 343.81 275.319C332.008 291.591 305.123 285.999 289.47 298.622C265.94 317.597 261.648 363.648 231.476 365.908C203.793 367.982 195.769 325.393 174.782 307.214C154.135 289.33 118.82 286.025 109.594 260.335C100.396 234.724 120.991 208.694 130.212 183.114C138.735 159.471 144.533 134.723 161.546 116.219C179.685 96.4906 202.357 78.1001 229.068 75.5947C255.377 73.127 277.755 91.9694 301.746 103.069Z" stroke="url(#paint2_linear_572_13)" stroke-width="2"/>
<defs>
<linearGradient id="paint0_linear_572_13" x1="128.584" y1="317.642" x2="276.46" y2="85.9574" gradientUnits="userSpaceOnUse">
<stop stop-color="#FDF435"/>
<stop offset="0.317708" stop-color="#FCFCFC"/>
<stop offset="0.677083" stop-color="#9C5CD4"/>
<stop offset="1" stop-color="#2C2C2C"/>
</linearGradient>
<linearGradient id="paint1_linear_572_13" x1="123.901" y1="137.889" x2="310.816" y2="339.403" gradientUnits="userSpaceOnUse">
<stop stop-color="#FDF435"/>
<stop offset="0.317708" stop-color="#FCFCFC"/>
<stop offset="0.677083" stop-color="#9C5CD4"/>
<stop offset="1" stop-color="#2C2C2C"/>
</linearGradient>
<linearGradient id="paint2_linear_572_13" x1="294.613" y1="96.3739" x2="183.184" y2="347.628" gradientUnits="userSpaceOnUse">
<stop stop-color="#FDF435"/>
<stop offset="0.317708" stop-color="#FCFCFC"/>
<stop offset="0.677083" stop-color="#9C5CD4"/>
<stop offset="1" stop-color="#2C2C2C"/>
</linearGradient>
</defs>
</svg>
