<svg width="585" height="446" viewBox="0 0 585 446" fill="none" xmlns="http://www.w3.org/2000/svg">
<path fill-rule="evenodd" clip-rule="evenodd" d="M1015.18 740.025C989.995 833.47 899.867 886.092 818.191 937.977C718.97 1001.01 619.604 1084.16 503.665 1064.97C372.579 1043.27 258.74 952.665 196.743 835.117C132.171 712.687 92.4533 549.583 172.131 436.365C247.718 328.96 414.711 385.133 540.325 346.905C632.339 318.903 707.888 214.234 798.773 245.663C889.858 277.161 901.566 396.885 940.223 485.195C977.132 569.51 1039.14 651.138 1015.18 740.025Z" stroke="url(#paint0_linear_514_3)" stroke-width="2"/>
<path fill-rule="evenodd" clip-rule="evenodd" d="M1104.55 372.499C1142.87 461.369 1104.94 558.596 1073.17 649.997C1034.58 761.029 1008.37 887.917 905.602 944.909C789.403 1009.35 643.909 1009.07 522.3 955.48C395.64 899.66 263.186 796.527 255.283 658.308C247.786 527.186 413.54 467.457 488.221 359.461C542.927 280.354 537.099 151.399 627.842 119.563C718.786 87.6568 802.34 174.199 887.497 219.382C968.801 262.521 1068.1 287.963 1104.55 372.499Z" stroke="url(#paint1_linear_514_3)" stroke-width="2"/>
<defs>
<linearGradient id="paint0_linear_514_3" x1="999.942" y1="784.244" x2="148.615" y2="477.602" gradientUnits="userSpaceOnUse">
<stop stop-color="#E40303"/>
<stop offset="0.229211" stop-color="#FF8C00"/>
<stop offset="0.444575" stop-color="#FFED00"/>
<stop offset="0.639748" stop-color="#008026"/>
<stop offset="0.828191" stop-color="#004DFF"/>
<stop offset="1" stop-color="#750787"/>
</linearGradient>
<linearGradient id="paint1_linear_514_3" x1="1120.08" y1="416.615" x2="262.475" y2="705.231" gradientUnits="userSpaceOnUse">
<stop stop-color="#E40303"/>
<stop offset="0.229211" stop-color="#FF8C00"/>
<stop offset="0.444575" stop-color="#FFED00"/>
<stop offset="0.639748" stop-color="#008026"/>
<stop offset="0.828191" stop-color="#004DFF"/>
<stop offset="1" stop-color="#750787"/>
</linearGradient>
</defs>
</svg>
