<svg width="417" height="32" viewBox="0 0 417 32" fill="none" xmlns="http://www.w3.org/2000/svg">
<path d="M15.2852 -2.38419e-06C17.4452 -2.38419e-06 19.6852 0.4 21.6452 1.28C23.5652 2.2 26.0452 4.04 26.0452 6.36C26.0452 8.16 24.8052 9.52 22.5652 9.48C24.2852 4.64 20.2852 0.639999 15.2852 0.639999C8.84516 0.639999 3.60516 7.08 3.60516 15C3.60516 20.52 6.16516 25.32 9.84516 27.72C15.5252 31.4 22.3252 28.4 26.0452 23.32V26.68C23.3252 28.84 19.4852 30 15.2852 30C7.04516 30 0.285156 23.32 0.285156 15C0.285156 6.72 7.00516 -2.38419e-06 15.2852 -2.38419e-06ZM47.6677 16.68V30H44.3477V23.28C42.9077 26.92 39.8277 30 35.6677 30C31.8677 30 29.3477 27.6 29.3477 23.76C29.3477 20.32 32.0277 17.68 35.4277 17.68C38.2277 17.68 39.7077 19.12 42.0277 19.36C44.1077 19.6 44.3477 18.32 44.3477 16.68C44.3477 12.92 42.5877 10.72 38.6277 10.64C36.3877 10.6 33.4277 11.48 32.5877 13.8C32.2677 14.6 32.2677 15.52 32.6677 16.48C30.4277 16.68 29.3477 15.64 29.3477 14.24C29.3477 12.84 30.7877 11.68 32.1477 11.08C33.7477 10.4 36.2277 10 38.7477 10C43.5877 10.04 47.6677 11.24 47.6677 16.68ZM44.3477 19.32C43.6277 20.04 42.3877 20.08 41.4677 19.92C39.8677 19.64 38.2677 19.04 36.6277 19.16C33.9877 19.4 32.7077 21.64 32.6677 23.8C32.5877 27.56 35.7077 29.32 38.9477 28.2C42.5477 26.92 44.1477 22.84 44.3477 19.32ZM66.6914 -2.38419e-06H70.0114V30H66.6914V27.12C65.0114 28.84 62.7314 30 60.2914 30C54.6914 30 51.6914 25.48 51.6914 20.28C51.6914 15.08 55.1714 10 60.8114 10C63.2514 10 65.1714 10.88 66.6914 12.6V-2.38419e-06ZM66.6914 25.28V14.84C65.8114 12.84 64.2114 10.84 61.8114 10.68C56.9714 10.32 55.0114 15.96 55.0114 20.28C55.0114 23.84 56.7314 29.32 61.3714 29.2C63.7714 29.12 65.5714 27.28 66.6914 25.28ZM92.277 16.68V30H88.957V23.28C87.517 26.92 84.437 30 80.277 30C76.477 30 73.957 27.6 73.957 23.76C73.957 20.32 76.637 17.68 80.037 17.68C82.837 17.68 84.317 19.12 86.637 19.36C88.717 19.6 88.957 18.32 88.957 16.68C88.957 12.92 87.197 10.72 83.237 10.64C80.997 10.6 78.037 11.48 77.197 13.8C76.877 14.6 76.877 15.52 77.277 16.48C75.037 16.68 73.957 15.64 73.957 14.24C73.957 12.84 75.397 11.68 76.757 11.08C78.357 10.4 80.837 10 83.357 10C88.197 10.04 92.277 11.24 92.277 16.68ZM88.957 19.32C88.237 20.04 86.997 20.08 86.077 19.92C84.477 19.64 82.877 19.04 81.237 19.16C78.597 19.4 77.317 21.64 77.277 23.8C77.197 27.56 80.317 29.32 83.557 28.2C87.157 26.92 88.757 22.84 88.957 19.32ZM95.5911 25.6C95.6711 23.76 97.4311 23 99.0311 23.52C98.5111 24.52 98.5111 25.48 98.8311 26.28C99.8711 28.68 103.551 29.44 105.831 29.32C111.151 29.08 113.311 24.04 108.151 22.04C104.951 20.8 100.071 21.12 97.3511 18.64C95.0311 16.52 95.5111 13.12 98.1911 11.52C100.071 10.36 102.831 10 105.191 10C106.871 10 109.111 10.36 110.831 11.08C112.151 11.68 113.591 12.84 113.591 14.24C113.591 15.64 112.511 16.68 110.271 16.48C111.271 14.08 109.831 11.96 107.151 11.08C104.831 10.32 101.871 10.52 100.031 11.56C98.1111 12.64 97.6311 15.04 99.4711 16.32C101.991 18.08 107.271 17.76 110.551 19.32C112.511 20.24 113.911 21.72 113.911 24.08C113.911 28.64 108.671 29.96 104.231 30C101.711 30.04 95.4311 29.08 95.5911 25.6ZM114.942 10.04C117.982 10.04 120.582 7.56 120.582 4.64H121.222V10.04H125.062V10.64H121.222V25.72C121.222 28.52 123.342 29.48 125.302 27.52L125.742 27.96C124.662 29.04 122.982 30 121.422 30C120.062 30 119.182 29.44 118.622 28.6C118.022 27.64 117.902 26.44 117.902 25.32V10.64H114.942V10.04ZM128.098 10H131.418V11.72C134.858 10.12 140.058 10 143.098 10V13.36C140.698 12.52 134.818 10.64 131.418 12.48V30H128.098V10ZM153.946 10C159.226 10 163.506 14.48 163.506 20C163.506 25.52 159.226 30 153.946 30C148.706 30 144.426 25.52 144.426 20C144.426 14.48 148.706 10 153.946 10ZM153.946 10.64C150.546 10.64 147.746 14.84 147.746 20C147.746 25.2 150.546 29.4 153.946 29.4C157.386 29.4 160.186 25.2 160.186 20C160.186 14.84 157.386 10.64 153.946 10.64ZM192.277 -2.38419e-06H195.597V30H192.277V27.12C190.597 28.84 188.317 30 185.877 30C180.277 30 177.277 25.48 177.277 20.28C177.277 15.08 180.757 10 186.397 10C188.837 10 190.757 10.88 192.277 12.6V-2.38419e-06ZM192.277 25.28V14.84C191.397 12.84 189.797 10.84 187.397 10.68C182.557 10.32 180.597 15.96 180.597 20.28C180.597 23.84 182.317 29.32 186.957 29.2C189.357 29.12 191.157 27.28 192.277 25.28ZM202.88 15.48C204.96 17.48 208.2 19.12 211.12 18.36C215.36 17.28 214.56 10.64 209.48 10.64C206.4 10.64 204 12.76 202.88 15.48ZM210.56 19.76C207.68 19.48 204.68 18 202.64 16.12C200.88 21.48 203.6 28.64 209.96 28.76C212.64 28.8 215.56 27.6 216.92 25.16L217.28 25.4C215.48 28.68 212.28 30 209.08 30C204 30 198.84 26.24 198.84 20C198.84 14.24 203.44 10 209.08 10C214.68 10 217.24 12.76 217.24 15.32C217.28 17.84 214.88 20.2 210.56 19.76ZM245.832 -2.38419e-06C247.992 -2.38419e-06 250.232 0.4 252.192 1.28C254.112 2.2 256.592 4.04 256.592 6.36C256.592 8.16 255.352 9.52 253.112 9.48C254.832 4.64 250.832 0.639999 245.832 0.639999C239.392 0.639999 234.152 7.08 234.152 15C234.152 20.52 236.712 25.32 240.392 27.72C246.072 31.4 252.872 28.4 256.592 23.32V26.68C253.872 28.84 250.032 30 245.832 30C237.592 30 230.832 23.32 230.832 15C230.832 6.72 237.552 -2.38419e-06 245.832 -2.38419e-06ZM278.8 30H275.48V28.28C273 29.28 269.52 30 266.52 30C263.48 30 260.48 29.36 260.48 25.56V10H263.8V25.56C263.8 28 265.12 29 266.76 29.24C269.36 29.64 273.24 28.24 275.48 26.6V10H278.8V30ZM282.746 10H286.066V11.72C289.506 10.12 294.706 10 297.746 10V13.36C295.346 12.52 289.466 10.64 286.066 12.48V30H282.746V10ZM300.598 10H303.918V11.72C307.358 10.12 312.558 10 315.598 10V13.36C313.198 12.52 307.318 10.64 303.918 12.48V30H300.598V10ZM318.801 10H322.121V30H318.801V10ZM320.241 8.2L321.521 3.76H324.401L320.881 8.2H320.241ZM341.587 11C342.947 11.6 344.467 12.84 344.467 14.24C344.467 15.64 343.347 16.68 341.107 16.48C342.427 13.28 339.787 10.64 336.667 10.64C333.347 10.64 330.827 13.12 329.827 16.12C328.067 21.48 330.747 28.64 337.147 28.76C339.827 28.8 342.747 27.6 344.107 25.16L344.467 25.4C342.667 28.68 339.467 30 336.267 30C331.187 30 326.027 26.24 326.027 20C326.027 14.24 330.627 10 336.267 10C338.147 10 340.147 10.4 341.587 11ZM366.222 30H362.902V28.28C360.422 29.28 356.942 30 353.942 30C350.902 30 347.902 29.36 347.902 25.56V10H351.222V25.56C351.222 28 352.542 29 354.182 29.24C356.782 29.64 360.662 28.24 362.902 26.6V10H366.222V30ZM370.168 30V-2.38419e-06H373.488V30H370.168ZM386.133 10C391.413 10 395.693 14.48 395.693 20C395.693 25.52 391.413 30 386.133 30C380.893 30 376.613 25.52 376.613 20C376.613 14.48 380.893 10 386.133 10ZM386.133 10.64C382.733 10.64 379.933 14.84 379.933 20C379.933 25.2 382.733 29.4 386.133 29.4C389.573 29.4 392.373 25.2 392.373 20C392.373 14.84 389.573 10.64 386.133 10.64ZM398.404 25.6C398.484 23.76 400.244 23 401.844 23.52C401.324 24.52 401.324 25.48 401.644 26.28C402.684 28.68 406.364 29.44 408.644 29.32C413.964 29.08 416.124 24.04 410.964 22.04C407.764 20.8 402.884 21.12 400.164 18.64C397.844 16.52 398.324 13.12 401.004 11.52C402.884 10.36 405.644 10 408.004 10C409.684 10 411.924 10.36 413.644 11.08C414.964 11.68 416.404 12.84 416.404 14.24C416.404 15.64 415.324 16.68 413.084 16.48C414.084 14.08 412.644 11.96 409.964 11.08C407.644 10.32 404.684 10.52 402.844 11.56C400.924 12.64 400.444 15.04 402.284 16.32C404.804 18.08 410.084 17.76 413.364 19.32C415.324 20.24 416.724 21.72 416.724 24.08C416.724 28.64 411.484 29.96 407.044 30C404.524 30.04 398.244 29.08 398.404 25.6Z" fill="url(#paint0_linear_518_442)"/>
<defs>
<linearGradient id="paint0_linear_518_442" x1="-41.1675" y1="0" x2="-41.1675" y2="51.25" gradientUnits="userSpaceOnUse">
<stop stop-color="#E40303"/>
<stop offset="0.192708" stop-color="#FF8C00"/>
<stop offset="0.359375" stop-color="#FFED00"/>
<stop offset="0.527238" stop-color="#007F26"/>
<stop offset="0.703125" stop-color="#004DFF"/>
<stop offset="0.848958" stop-color="#750787"/>
</linearGradient>
</defs>
</svg>
