<svg width="341" height="132" viewBox="0 0 341 132" fill="none" xmlns="http://www.w3.org/2000/svg">
<path d="M36.25 10.5C40.03 10.5 43.95 11.2 47.38 12.74C50.74 14.35 55.08 17.57 55.08 21.63C55.08 24.78 52.91 27.16 48.99 27.09C52 18.62 45 11.62 36.25 11.62C24.98 11.62 15.81 22.89 15.81 36.75C15.81 46.41 20.29 54.81 26.73 59.01C36.67 65.45 48.57 60.2 55.08 51.31V57.19C50.32 60.97 43.6 63 36.25 63C21.83 63 10 51.31 10 36.75C10 22.26 21.76 10.5 36.25 10.5ZM76.2889 28C85.5289 28 93.0189 35.84 93.0189 45.5C93.0189 55.16 85.5289 63 76.2889 63C67.1189 63 59.6289 55.16 59.6289 45.5C59.6289 35.84 67.1189 28 76.2889 28ZM76.2889 29.12C70.3389 29.12 65.4389 36.47 65.4389 45.5C65.4389 54.6 70.3389 61.95 76.2889 61.95C82.3089 61.95 87.2089 54.6 87.2089 45.5C87.2089 36.47 82.3089 29.12 76.2889 29.12ZM99.2773 28H105.087V31.01C109.427 29.26 115.517 28 120.767 28C126.087 28 131.337 29.19 131.337 35.77V63H125.527V35.77C125.527 31.5 123.217 29.75 120.347 29.33C115.797 28.7 109.007 31.08 105.087 33.95V63H99.2773V28ZM138.242 10.5H144.052V31.01C148.392 29.26 154.482 28 159.732 28C165.052 28 170.302 29.19 170.302 35.77V63H164.492V35.77C164.492 31.5 162.182 29.75 159.312 29.33C154.762 28.7 147.972 31.08 144.052 33.95V63H138.242V10.5ZM183.662 37.59C187.302 41.09 192.972 43.96 198.082 42.63C205.502 40.74 204.102 29.12 195.212 29.12C189.822 29.12 185.622 32.83 183.662 37.59ZM197.102 45.08C192.062 44.59 186.812 42 183.242 38.71C180.162 48.09 184.922 60.62 196.052 60.83C200.742 60.9 205.852 58.8 208.232 54.53L208.862 54.95C205.712 60.69 200.112 63 194.512 63C185.622 63 176.592 56.42 176.592 45.5C176.592 35.42 184.642 28 194.512 28C204.312 28 208.792 32.83 208.792 37.31C208.862 41.72 204.662 45.85 197.102 45.08ZM240.738 29.75C243.048 30.8 245.708 32.97 245.708 35.35C245.708 37.87 243.818 39.69 239.828 39.34C242.208 33.74 237.518 29.05 232.058 29.05C226.248 29.05 221.838 33.39 220.088 38.71C217.008 48.09 221.768 60.62 232.898 60.83C237.658 60.9 242.768 58.8 245.078 54.53L245.708 54.95C242.698 60.62 237.238 62.93 231.778 63C231.358 66.64 237.098 66.5 236.958 70.07C236.888 71.26 236.048 72.31 234.788 72.8C233.808 73.22 232.618 73.29 231.638 73.29C230.728 73.29 229.748 73.15 228.908 72.8C228.138 72.38 227.158 71.68 227.018 70.77C226.808 69.51 227.858 68.74 229.118 68.81C228.278 70.98 230.028 72.8 232.128 72.73C234.788 72.66 235.278 69.86 233.808 68.18C232.548 66.71 230.168 66.08 231.078 63C222.258 62.86 213.438 56.28 213.438 45.5C213.438 35.42 221.488 28 231.358 28C234.648 28 238.218 28.63 240.738 29.75ZM283.3 39.69V63H277.49V51.24C274.97 57.61 269.58 63 262.3 63C255.65 63 251.24 58.8 251.24 52.08C251.24 46.06 255.93 41.44 261.88 41.44C266.78 41.44 269.37 43.96 273.43 44.38C277.07 44.8 277.49 42.56 277.49 39.69C277.49 33.11 274.41 29.26 267.48 29.12C263.56 29.05 258.38 30.59 256.91 34.65C256.35 36.05 256.35 37.66 257.05 39.34C253.13 39.69 251.24 37.87 251.24 35.42C251.24 32.97 253.76 30.94 256.14 29.89C258.94 28.7 263.28 28 267.69 28C276.16 28.07 283.3 30.17 283.3 39.69ZM277.49 44.31C276.23 45.57 274.06 45.64 272.45 45.36C269.65 44.87 266.85 43.82 263.98 44.03C259.36 44.45 257.12 48.37 257.05 52.15C256.91 58.73 262.37 61.81 268.04 59.85C274.34 57.61 277.14 50.47 277.49 44.31Z" fill="url(#paint0_angular_624_8)"/>
<path d="M102.06 81.69V105H96.25V93.24C93.73 99.61 88.34 105 81.06 105C74.41 105 70 100.8 70 94.08C70 88.06 74.69 83.44 80.64 83.44C85.54 83.44 88.13 85.96 92.19 86.38C95.83 86.8 96.25 84.56 96.25 81.69C96.25 75.11 93.17 71.26 86.24 71.12C82.32 71.05 77.14 72.59 75.67 76.65C75.11 78.05 75.11 79.66 75.81 81.34C71.89 81.69 70 79.87 70 77.42C70 74.97 72.52 72.94 74.9 71.89C77.7 70.7 82.04 70 86.45 70C94.92 70.07 102.06 72.17 102.06 81.69ZM96.25 86.31C94.99 87.57 92.82 87.64 91.21 87.36C88.41 86.87 85.61 85.82 82.74 86.03C78.12 86.45 75.88 90.37 75.81 94.15C75.67 100.73 81.13 103.81 86.8 101.85C93.1 99.61 95.9 92.47 96.25 86.31ZM133.261 79.59C136.901 83.09 142.571 85.96 147.681 84.63C155.101 82.74 153.701 71.12 144.811 71.12C139.421 71.12 135.221 74.83 133.261 79.59ZM146.701 87.08C141.661 86.59 136.411 84 132.841 80.71C129.761 90.09 134.521 102.62 145.651 102.83C150.341 102.9 155.451 100.8 157.831 96.53L158.461 96.95C155.311 102.69 149.711 105 144.111 105C135.221 105 126.191 98.42 126.191 87.5C126.191 77.42 134.241 70 144.111 70C153.911 70 158.391 74.83 158.391 79.31C158.461 83.72 154.261 87.85 146.701 87.08ZM189.766 70H195.576V122.43H189.766V99.96C186.826 102.97 182.836 104.93 178.566 104.93C168.766 104.93 163.516 97.02 163.516 87.99C163.516 78.89 169.606 70 179.476 70C183.746 70 187.106 71.47 189.766 74.48V70ZM189.766 96.67V78.47C188.226 74.97 185.426 71.4 181.226 71.12C172.756 70.56 169.326 80.36 169.326 87.99C169.326 94.15 172.336 103.74 180.456 103.53C184.656 103.46 187.806 100.24 189.766 96.67ZM234.746 105H228.936V101.99C224.596 103.74 218.506 105 213.256 105C207.936 105 202.686 103.88 202.686 97.23V70H208.496V97.23C208.496 101.5 210.806 103.25 213.676 103.67C218.226 104.37 225.016 101.92 228.936 99.05V70H234.746V105ZM241.65 70H247.46V105H241.65V70ZM244.59 62.65C246.2 62.65 247.46 63.91 247.46 65.52C247.46 67.13 246.2 68.46 244.59 68.46C242.98 68.46 241.65 67.13 241.65 65.52C241.65 63.91 242.98 62.65 244.59 62.65ZM254.365 70H260.175V76.58C263.675 72.87 268.295 70 273.545 70C282.155 70 286.425 77 286.425 84.98C286.425 97.09 280.545 105 267.945 105H260.175V122.5H254.365V70ZM260.175 79.87V103.18C261.855 103.67 264.025 103.81 266.195 103.81C277.045 103.81 280.615 94.85 280.615 84.98C280.615 76.58 276.275 68.18 266.965 72.73C264.095 74.13 261.715 77.07 260.175 79.87ZM298.896 79.59C302.536 83.09 308.206 85.96 313.316 84.63C320.736 82.74 319.336 71.12 310.446 71.12C305.056 71.12 300.856 74.83 298.896 79.59ZM312.336 87.08C307.296 86.59 302.046 84 298.476 80.71C295.396 90.09 300.156 102.62 311.286 102.83C315.976 102.9 321.086 100.8 323.466 96.53L324.096 96.95C320.946 102.69 315.346 105 309.746 105C300.856 105 291.826 98.42 291.826 87.5C291.826 77.42 299.876 70 309.746 70C319.546 70 324.026 74.83 324.026 79.31C324.096 83.72 319.896 87.85 312.336 87.08Z" fill="url(#paint1_angular_624_8)"/>
<defs>
<radialGradient id="paint0_angular_624_8" cx="0" cy="0" r="1" gradientUnits="userSpaceOnUse" gradientTransform="translate(147.5 46.5) rotate(90) scale(30 120.429)">
<stop offset="0.0416667" stop-color="#E40303"/>
<stop offset="0.255208" stop-color="#FF8C00"/>
<stop offset="0.490507" stop-color="#FFED00"/>
<stop offset="0.651042" stop-color="#008026"/>
<stop offset="0.802083" stop-color="#004DFF"/>
<stop offset="1" stop-color="#750787"/>
</radialGradient>
<radialGradient id="paint1_angular_624_8" cx="0" cy="0" r="1" gradientUnits="userSpaceOnUse" gradientTransform="translate(200.5 72.8264) rotate(90) scale(49.1736 183.347)">
<stop offset="0.0416667" stop-color="#E40303"/>
<stop offset="0.255208" stop-color="#FF8C00"/>
<stop offset="0.427083" stop-color="#FFED00"/>
<stop offset="0.651042" stop-color="#008026"/>
<stop offset="0.802083" stop-color="#004DFF"/>
<stop offset="1" stop-color="#750787"/>
</radialGradient>
</defs>
</svg>
