<svg width="876" height="91" viewBox="0 0 876 91" fill="none" xmlns="http://www.w3.org/2000/svg">
<path d="M33.75 0.499995C38.61 0.499995 43.65 1.4 48.06 3.38C52.38 5.45 57.96 9.59 57.96 14.81C57.96 18.86 55.17 21.92 50.13 21.83C54 10.94 45 1.94 33.75 1.94C20.52 1.94 9.63 13.91 7.74 29.48C10.35 26.06 14.31 24.98 18 25.07C24.75 25.07 30.69 29.75 36.99 30.56C40.23 30.92 44.1 30.38 44.91 26.6C46.98 34.7 41.04 38.57 33.75 37.49C26.19 36.23 19.08 29.12 12.69 29.12C9.36 29.21 7.47 30.92 7.47 34.25C7.56 46.67 13.23 57.47 21.51 62.87C34.29 71.15 49.59 64.4 57.96 52.97V60.53C51.84 65.39 43.2 68 33.75 68C15.21 68 0 52.97 0 34.25C0 15.62 15.12 0.499995 33.75 0.499995ZM98.9648 23H106.435V90.41H98.9648V61.52C95.1848 65.39 90.0548 67.91 84.5648 67.91C71.9648 67.91 65.2148 57.74 65.2148 46.13C65.2148 34.43 73.0448 23 85.7348 23C91.2248 23 95.5448 24.89 98.9648 28.76V23ZM98.9648 57.29V33.89C96.9848 29.39 93.3848 24.8 87.9848 24.44C77.0948 23.72 72.6848 36.32 72.6848 46.13C72.6848 54.05 76.5548 66.38 86.9948 66.11C92.3948 66.02 96.4448 61.88 98.9648 57.29ZM156.796 68H149.326V64.13C143.746 66.38 135.916 68 129.166 68C122.326 68 115.576 66.56 115.576 58.01V23H123.046V58.01C123.046 63.5 126.016 65.75 129.706 66.29C135.556 67.19 144.286 64.04 149.326 60.35V23H156.796V68ZM165.674 23H173.144V68H165.674V23ZM169.454 13.55C171.524 13.55 173.144 15.17 173.144 17.24C173.144 19.31 171.524 21.02 169.454 21.02C167.384 21.02 165.674 19.31 165.674 17.24C165.674 15.17 167.384 13.55 169.454 13.55ZM182.021 23H189.491V31.46C193.991 26.69 199.931 23 206.681 23C217.751 23 223.241 32 223.241 42.26C223.241 57.83 215.681 68 199.481 68H189.491V90.5H182.021V23ZM189.491 35.69V65.66C191.651 66.29 194.441 66.47 197.231 66.47C211.181 66.47 215.771 54.95 215.771 42.26C215.771 31.46 210.191 20.66 198.221 26.51C194.531 28.31 191.471 32.09 189.491 35.69ZM239.276 35.33C243.956 39.83 251.246 43.52 257.816 41.81C267.356 39.38 265.556 24.44 254.126 24.44C247.196 24.44 241.796 29.21 239.276 35.33ZM256.556 44.96C250.076 44.33 243.326 41 238.736 36.77C234.776 48.83 240.896 64.94 255.206 65.21C261.236 65.3 267.806 62.6 270.866 57.11L271.676 57.65C267.626 65.03 260.426 68 253.226 68C241.796 68 230.186 59.54 230.186 45.5C230.186 32.54 240.536 23 253.226 23C265.826 23 271.586 29.21 271.586 34.97C271.676 40.64 266.276 45.95 256.556 44.96ZM302.168 0.499995H350.318V8.06C338.258 5.45 329.168 1.94 309.638 1.94V29.57C312.788 25.79 317.558 24.35 321.968 25.25C326.468 26.15 330.518 29.3 335.198 29.93C337.988 30.38 341.318 30.38 342.038 26.6C343.478 33.08 340.688 36.59 336.278 37.22C327.638 38.3 320.888 28.22 313.958 29.03C311.798 29.3 309.638 30.56 309.638 33.17V68H302.168V0.499995ZM368.852 23C380.732 23 390.362 33.08 390.362 45.5C390.362 57.92 380.732 68 368.852 68C357.062 68 347.432 57.92 347.432 45.5C347.432 33.08 357.062 23 368.852 23ZM368.852 24.44C361.202 24.44 354.902 33.89 354.902 45.5C354.902 57.2 361.202 66.65 368.852 66.65C376.592 66.65 382.892 57.2 382.892 45.5C382.892 33.89 376.592 24.44 368.852 24.44ZM398.76 23H406.23V26.87C413.97 23.27 425.67 23 432.51 23V30.56C427.11 28.67 413.88 24.44 406.23 28.58V68H398.76V23ZM492.89 40.01V68H485.42V40.01L462.92 0.499995H471.56L492.71 37.58C499.82 25.07 504.95 12.11 507.92 0.499995H515.39L492.89 40.01ZM526.44 23C538.32 23 547.95 33.08 547.95 45.5C547.95 57.92 538.32 68 526.44 68C514.65 68 505.02 57.92 505.02 45.5C505.02 33.08 514.65 23 526.44 23ZM526.44 24.44C518.79 24.44 512.49 33.89 512.49 45.5C512.49 57.2 518.79 66.65 526.44 66.65C534.18 66.65 540.48 57.2 540.48 45.5C540.48 33.89 534.18 24.44 526.44 24.44ZM596.952 68H589.482V64.13C583.902 66.38 576.072 68 569.322 68C562.482 68 555.732 66.56 555.732 58.01V23H563.202V58.01C563.202 63.5 566.172 65.75 569.862 66.29C575.712 67.19 584.442 64.04 589.482 60.35V23H596.952V68ZM605.83 23H613.3V26.87C621.04 23.27 632.74 23 639.58 23V30.56C634.18 28.67 620.95 24.44 613.3 28.58V68H605.83V23ZM677.91 0.499995L700.5 65.84C707.16 44.42 712.83 24.17 717.06 0.499995H724.53L701.22 68H693.3L669.99 0.499995H677.91ZM741.332 23C753.212 23 762.842 33.08 762.842 45.5C762.842 57.92 753.212 68 741.332 68C729.542 68 719.912 57.92 719.912 45.5C719.912 33.08 729.542 23 741.332 23ZM741.332 24.44C733.682 24.44 727.382 33.89 727.382 45.5C727.382 57.2 733.682 66.65 741.332 66.65C749.072 66.65 755.372 57.2 755.372 45.5C755.372 33.89 749.072 24.44 741.332 24.44ZM770.625 23H778.095V68H770.625V23ZM774.405 13.55C776.475 13.55 778.095 15.17 778.095 17.24C778.095 19.31 776.475 21.02 774.405 21.02C772.335 21.02 770.625 19.31 770.625 17.24C770.625 15.17 772.335 13.55 774.405 13.55ZM821.719 25.25C824.779 26.6 828.199 29.39 828.199 32.54C828.199 35.69 825.679 38.03 820.639 37.58C823.609 30.38 817.669 24.44 810.649 24.44C803.179 24.44 797.509 30.02 795.259 36.77C791.299 48.83 797.329 64.94 811.729 65.21C817.759 65.3 824.329 62.6 827.389 57.11L828.199 57.65C824.149 65.03 816.949 68 809.749 68C798.319 68 786.709 59.54 786.709 45.5C786.709 32.54 797.059 23 809.749 23C813.979 23 818.479 23.9 821.719 25.25ZM842.645 35.33C847.325 39.83 854.615 43.52 861.185 41.81C870.725 39.38 868.925 24.44 857.495 24.44C850.565 24.44 845.165 29.21 842.645 35.33ZM859.925 44.96C853.445 44.33 846.695 41 842.105 36.77C838.145 48.83 844.265 64.94 858.575 65.21C864.605 65.3 871.175 62.6 874.235 57.11L875.045 57.65C870.995 65.03 863.795 68 856.595 68C845.165 68 833.555 59.54 833.555 45.5C833.555 32.54 843.905 23 856.595 23C869.195 23 874.955 29.21 874.955 34.97C875.045 40.64 869.645 45.95 859.925 44.96Z" fill="url(#paint0_angular_624_2)"/>
<defs>
<radialGradient id="paint0_angular_624_2" cx="0" cy="0" r="1" gradientUnits="userSpaceOnUse" gradientTransform="translate(457.5 36) rotate(90) scale(85 642.769)">
<stop offset="0.307292" stop-color="#FF8C00"/>
<stop offset="0.479167" stop-color="#FFED00"/>
<stop offset="0.651042" stop-color="#008026"/>
<stop offset="0.802083" stop-color="#004DFF"/>
<stop offset="1" stop-color="#750787"/>
</radialGradient>
</defs>
</svg>
