<svg width="40" height="46" viewBox="0 0 40 46" fill="none" xmlns="http://www.w3.org/2000/svg">
<path d="M20.281 0.627777C20.234 4.09579 19.7869 10.2643 19.4105 12.3963C19.0105 14.8409 18.187 17.3709 17.787 17.3709C17.2224 17.3709 14.2108 14.7841 11.2697 11.7425C10.4933 10.9465 10.8462 11.6003 12.3991 13.846C14.0696 16.2907 15.7871 19.3039 15.7871 19.8156C15.7871 20.2704 13.6696 21.2653 11.6462 21.777C9.55219 22.2886 5.27008 22.7719 2.51729 22.7719C1.36441 22.7719 0.470346 22.8287 0.5174 22.8856C0.564456 22.9709 2.56435 23.1699 4.96421 23.3404C7.36408 23.511 10.2816 23.8805 11.458 24.1648C13.8108 24.7617 15.7871 25.6714 15.7871 26.2115C15.7871 26.7516 13.8343 30.1343 12.1638 32.4937C11.2933 33.716 10.6345 34.711 10.7051 34.711C10.7521 34.711 11.5756 33.915 12.5403 32.9769C14.2108 31.2714 16.3048 29.4521 17.3871 28.7698C17.8811 28.4572 17.9517 28.514 18.4929 29.9353C18.7987 30.7597 19.1987 32.4084 19.4105 33.5739C19.7869 35.8764 20.234 41.9881 20.281 45.4845C20.3045 46.8206 20.4457 45.513 20.6339 42.1018C20.9869 35.8764 21.2457 33.6592 21.928 31.1292C22.6573 28.3719 22.7515 28.315 24.1396 29.2815C24.7984 29.7363 26.2101 30.9871 27.2924 32.0673C30.351 35.0521 30.3746 35.0521 28.21 31.8399C25.6689 28.0308 24.7513 26.2399 25.2219 25.8704C26.8454 24.6196 30.5393 23.7384 35.8801 23.3404C38.0683 23.1699 39.927 22.9709 39.9976 22.914C40.0446 22.8287 39.1506 22.7719 37.9977 22.7719C33.692 22.7719 28.5158 21.9191 26.4924 20.9242C24.9866 20.1567 24.916 20.0145 25.4101 18.8206C25.9042 17.6836 28.8923 12.908 29.504 12.2826C29.7393 12.0836 29.904 11.7709 29.904 11.6288C29.904 11.4866 29.1276 12.1689 28.21 13.1069C27.2689 14.0734 25.716 15.4947 24.7513 16.2623L23.0103 17.6552L22.5632 16.7739C22.0456 15.779 21.2927 12.4816 21.0574 10.2643C20.9633 9.41151 20.7751 6.39832 20.6104 3.58412C20.4222 0.201381 20.3045 -0.79354 20.281 0.627777Z" fill="url(#paint0_linear_469_18)"/>
<defs>
<linearGradient id="paint0_linear_469_18" x1="20.2575" y1="0" x2="20.2575" y2="46" gradientUnits="userSpaceOnUse">
<stop offset="0.19768" stop-color="#FCF533"/>
<stop offset="0.494792" stop-color="#9C5CD4"/>
<stop offset="0.722113" stop-color="#2C2C2C"/>
</linearGradient>
</defs>
</svg>
