<svg width="483" height="90" viewBox="0 0 483 90" fill="none" xmlns="http://www.w3.org/2000/svg">
<path d="M210 51.4058C210 52.7804 209.426 54.2188 208.146 55.7225C206.859 57.2337 204.909 58.7492 202.302 60.2312C197.088 63.1941 189.468 65.9006 179.953 68.1881C160.94 72.7587 134.616 75.5968 105.5 75.5968C76.3835 75.5968 50.06 72.7587 31.0475 68.1881C21.5318 65.9006 13.9115 63.1941 8.69838 60.2312C6.09122 58.7492 4.14069 57.2337 2.85429 55.7225C1.57432 54.2188 1 52.7804 1 51.4058C1 50.0313 1.57432 48.5929 2.85429 47.0892C4.14069 45.578 6.09122 44.0624 8.69838 42.5805C13.9115 39.6176 21.5318 36.9111 31.0475 34.6236C50.06 30.0529 76.3835 27.2148 105.5 27.2148C134.616 27.2148 160.94 30.0529 179.953 34.6236C189.468 36.9111 197.088 39.6176 202.302 42.5805C204.909 44.0624 206.859 45.578 208.146 47.0892C209.426 48.5929 210 50.0313 210 51.4058Z" stroke="url(#paint0_linear_424_31)"/>
<path d="M23.0615 13.9097H72.7571V22.0378C60.31 19.2317 50.9282 15.4579 30.7713 15.4579V45.1644C34.0224 41.1003 38.9455 39.5521 43.4971 40.5197C48.1415 41.4874 52.3215 44.8741 57.1517 45.5515C60.0313 46.0353 63.4682 46.0353 64.2113 41.9712C65.6975 48.9382 62.818 52.712 58.2664 53.3893C49.3491 54.5505 42.3824 43.713 35.23 44.5838C33.0006 44.8741 30.7713 46.2288 30.7713 49.035V86.4826H23.0615V13.9097ZM110.144 56.389V86.4826H102.434V56.389L79.2122 13.9097H88.1295L109.958 53.7764C117.297 40.3262 122.591 26.3922 125.657 13.9097H133.366L110.144 56.389ZM148.073 13.9097L171.388 84.1603C178.261 61.1305 184.113 39.3586 188.479 13.9097H196.189L172.131 86.4826H163.957L139.898 13.9097H148.073Z" fill="url(#paint1_linear_424_31)"/>
<path d="M34.6719 0H40.8838V1.01602C39.3279 0.665252 38.1552 0.193528 35.6356 0.193528V3.90684C36.042 3.39883 36.6574 3.20531 37.2263 3.32626C37.8069 3.44721 38.3294 3.87056 38.9332 3.95523C39.2931 4.0157 39.7227 4.0157 39.8156 3.50769C40.0014 4.37857 39.6414 4.85029 39.0725 4.93496C37.9578 5.08011 37.087 3.72541 36.1929 3.83427C35.9143 3.87056 35.6356 4.03989 35.6356 4.39066V9.07162H34.6719V0ZM45.3046 0C47.6385 0 49.5195 2.03204 49.5195 4.53581C49.5195 7.03958 47.6385 9.07162 45.3046 9.07162C42.9824 9.07162 41.0898 7.03958 41.0898 4.53581C41.0898 2.03204 42.9824 0 45.3046 0ZM45.3046 0.193528C43.5165 0.193528 42.0535 2.1409 42.0535 4.53581C42.0535 6.94281 43.5165 8.89019 45.3046 8.89019C47.1044 8.89019 48.5557 6.94281 48.5557 4.53581C48.5557 2.1409 47.1044 0.193528 45.3046 0.193528ZM50.8527 0H55.0559C56.2983 0 57.4362 0.882971 57.4362 2.34653C57.4362 3.93103 56.1822 4.68095 54.8004 4.68095C54.9978 4.77772 55.1488 4.92286 55.2649 5.1043C55.9732 6.09613 56.4376 7.43873 56.9833 8.35798C57.0878 8.53942 57.3549 8.95066 57.5407 9.07162H56.6466C56.3215 9.07162 56.1938 8.96276 56.0893 8.76923C55.4971 7.64435 55.0907 6.61623 54.394 5.47926C53.918 4.71724 53.3258 4.60838 52.6756 5.16477L52.5827 5.05591C53.2213 4.47533 53.8135 4.53581 54.5798 4.48743C55.857 4.41485 56.4608 3.56817 56.4608 2.34653C56.4608 1.0765 55.4507 0.193528 54.394 0.193528H51.8164V9.07162H50.8527V0Z" fill="url(#paint2_linear_424_31)"/>
<path d="M94.2718 5.30992V9.07162H93.3081V5.30992L90.4053 0H91.5199L94.2485 4.98334C95.1658 3.30207 95.8277 1.56032 96.2108 0H97.1746L94.2718 5.30992ZM101.367 0C103.701 0 105.582 2.03204 105.582 4.53581C105.582 7.03958 103.701 9.07162 101.367 9.07162C99.0446 9.07162 97.152 7.03958 97.152 4.53581C97.152 2.03204 99.0446 0 101.367 0ZM101.367 0.193528C99.5787 0.193528 98.1158 2.1409 98.1158 4.53581C98.1158 6.94281 99.5787 8.89019 101.367 8.89019C103.167 8.89019 104.618 6.94281 104.618 4.53581C104.618 2.1409 103.167 0.193528 101.367 0.193528ZM112.72 0H113.684V9.07162H112.72V7.42663C111.803 8.45475 110.352 9.07162 109.26 9.07162C107.681 9.07162 106.915 8.43056 106.915 6.76138V0H107.879V6.76138C107.879 8.3217 108.749 8.82971 109.829 8.70875C110.712 8.59989 111.733 8.10398 112.442 7.42663C112.628 7.2452 112.72 7.03958 112.72 6.77347V0ZM115.011 0H119.214C120.456 0 121.594 0.882971 121.594 2.34653C121.594 3.93103 120.34 4.68095 118.959 4.68095C119.156 4.77772 119.307 4.92286 119.423 5.1043C120.131 6.09613 120.596 7.43873 121.142 8.35798C121.246 8.53942 121.513 8.95066 121.699 9.07162H120.805C120.48 9.07162 120.352 8.96276 120.247 8.76923C119.655 7.64435 119.249 6.61623 118.552 5.47926C118.076 4.71724 117.484 4.60838 116.834 5.16477L116.741 5.05591C117.38 4.47533 117.972 4.53581 118.738 4.48743C120.015 4.41485 120.619 3.56817 120.619 2.34653C120.619 1.0765 119.609 0.193528 118.552 0.193528H115.975V9.07162H115.011V0Z" fill="url(#paint3_linear_424_31)"/>
<path d="M151.805 0L154.719 8.78133C155.579 5.9026 156.31 3.18111 156.856 0H157.82L154.812 9.07162H153.79L150.783 0H151.805ZM162.278 0C164.612 0 166.493 2.03204 166.493 4.53581C166.493 7.03958 164.612 9.07162 162.278 9.07162C159.956 9.07162 158.063 7.03958 158.063 4.53581C158.063 2.03204 159.956 0 162.278 0ZM162.278 0.193528C160.49 0.193528 159.027 2.1409 159.027 4.53581C159.027 6.94281 160.49 8.89019 162.278 8.89019C164.077 8.89019 165.529 6.94281 165.529 4.53581C165.529 2.1409 164.077 0.193528 162.278 0.193528ZM167.826 9.07162V0H168.789V9.07162H167.826ZM174.278 0C174.905 0 175.555 0.120955 176.124 0.387056C176.681 0.665252 177.401 1.22164 177.401 1.92318C177.401 2.46748 177.041 2.87873 176.391 2.86663C176.89 1.40308 175.729 0.193528 174.278 0.193528C172.408 0.193528 170.887 2.1409 170.887 4.53581C170.887 6.20499 171.63 7.65645 172.698 8.38217C174.347 9.49496 176.321 8.5878 177.401 7.05167V8.06769C176.611 8.72085 175.497 9.07162 174.278 9.07162C171.886 9.07162 169.923 7.05167 169.923 4.53581C169.923 2.03204 171.874 0 174.278 0ZM182.464 0C183.091 0 183.742 0.120955 184.311 0.387056C184.868 0.665252 185.588 1.22164 185.588 1.92318C185.588 2.46748 185.228 2.87873 184.578 2.86663C185.077 1.40308 183.916 0.193528 182.464 0.193528C180.758 0.193528 179.353 1.80223 179.109 3.89475C179.445 3.43512 179.956 3.28997 180.432 3.30207C181.303 3.30207 182.07 3.93103 182.882 4.03989C183.3 4.08828 183.8 4.0157 183.904 3.50769C184.171 4.59629 183.405 5.11639 182.464 4.97125C181.489 4.80191 180.572 3.84637 179.747 3.84637C179.318 3.85846 179.074 4.08828 179.074 4.53581C179.086 6.20499 179.817 7.65645 180.885 8.38217C182.534 9.49496 184.508 8.5878 185.588 7.05167V8.06769C184.798 8.72085 183.684 9.07162 182.464 9.07162C180.072 9.07162 178.11 7.05167 178.11 4.53581C178.11 2.03204 180.061 0 182.464 0Z" fill="url(#paint4_linear_424_31)"/>
<path d="M233.12 66.28C232.587 66.28 232.173 66.1333 231.88 65.84C231.613 65.52 231.48 65.0933 231.48 64.56V39.48C231.48 38.92 231.627 38.5067 231.92 38.24C232.213 37.9467 232.627 37.8 233.16 37.8H242.64C245.653 37.8 247.973 38.5467 249.6 40.04C251.227 41.5067 252.04 43.5867 252.04 46.28C252.04 48.9467 251.227 51.0267 249.6 52.52C247.973 54.0133 245.653 54.76 242.64 54.76H234.76V64.56C234.76 65.0933 234.627 65.52 234.36 65.84C234.093 66.1333 233.68 66.28 233.12 66.28ZM234.76 52H242.24C244.4 52 246.027 51.52 247.12 50.56C248.24 49.5733 248.8 48.1467 248.8 46.28C248.8 44.3867 248.24 42.96 247.12 42C246.027 41.0133 244.4 40.52 242.24 40.52H234.76V52ZM253.341 66.28C252.914 66.28 252.568 66.1867 252.301 66C252.061 65.7867 251.914 65.52 251.861 65.2C251.834 64.8533 251.914 64.4667 252.101 64.04L263.101 39C263.341 38.4667 263.621 38.0933 263.941 37.88C264.288 37.64 264.661 37.52 265.061 37.52C265.461 37.52 265.821 37.64 266.141 37.88C266.488 38.0933 266.768 38.4667 266.981 39L278.021 64.04C278.234 64.4667 278.314 64.8533 278.261 65.2C278.234 65.5467 278.101 65.8133 277.861 66C277.621 66.1867 277.288 66.28 276.861 66.28C276.381 66.28 275.994 66.16 275.701 65.92C275.408 65.6533 275.168 65.28 274.981 64.8L272.021 57.96L273.621 58.8H256.421L258.061 57.96L255.141 64.8C254.901 65.3067 254.648 65.68 254.381 65.92C254.114 66.16 253.768 66.28 253.341 66.28ZM265.021 41.64L258.581 56.8L257.621 56.04H272.421L271.541 56.8L265.101 41.64H265.021ZM295.493 66.36C292.479 66.36 289.933 65.7867 287.853 64.64C285.799 63.4933 284.239 61.84 283.173 59.68C282.106 57.52 281.573 54.9333 281.573 51.92C281.573 49.68 281.866 47.6667 282.453 45.88C283.066 44.0933 283.946 42.5867 285.093 41.36C286.266 40.1067 287.679 39.1467 289.333 38.48C291.013 37.7867 292.906 37.44 295.013 37.44C296.693 37.44 298.319 37.68 299.893 38.16C301.466 38.6133 302.866 39.3467 304.093 40.36C304.413 40.6 304.613 40.8667 304.693 41.16C304.773 41.4533 304.759 41.7467 304.653 42.04C304.573 42.3333 304.426 42.5867 304.213 42.8C304.026 42.9867 303.773 43.0933 303.453 43.12C303.159 43.1467 302.853 43.0533 302.533 42.84C301.439 41.9867 300.279 41.3733 299.053 41C297.826 40.6 296.466 40.4 294.973 40.4C292.839 40.4 291.026 40.8533 289.533 41.76C288.066 42.6667 286.946 43.9733 286.173 45.68C285.426 47.3867 285.053 49.4667 285.053 51.92C285.053 55.6533 285.919 58.5067 287.653 60.48C289.413 62.4533 292.053 63.44 295.573 63.44C296.853 63.44 298.106 63.32 299.333 63.08C300.559 62.8133 301.719 62.4533 302.813 62L302.093 63.88V53.92H296.373C295.893 53.92 295.533 53.8 295.293 53.56C295.053 53.32 294.933 53 294.933 52.6C294.933 52.1733 295.053 51.8533 295.293 51.64C295.533 51.4267 295.893 51.32 296.373 51.32H303.533C303.986 51.32 304.333 51.44 304.573 51.68C304.813 51.92 304.933 52.2667 304.933 52.72V63.16C304.933 63.56 304.866 63.8933 304.733 64.16C304.599 64.4267 304.373 64.6267 304.053 64.76C302.933 65.2133 301.586 65.6 300.013 65.92C298.466 66.2133 296.959 66.36 295.493 66.36ZM311.036 66.28C310.61 66.28 310.263 66.1867 309.996 66C309.756 65.7867 309.61 65.52 309.556 65.2C309.53 64.8533 309.61 64.4667 309.796 64.04L320.796 39C321.036 38.4667 321.316 38.0933 321.636 37.88C321.983 37.64 322.356 37.52 322.756 37.52C323.156 37.52 323.516 37.64 323.836 37.88C324.183 38.0933 324.463 38.4667 324.676 39L335.716 64.04C335.93 64.4667 336.01 64.8533 335.956 65.2C335.93 65.5467 335.796 65.8133 335.556 66C335.316 66.1867 334.983 66.28 334.556 66.28C334.076 66.28 333.69 66.16 333.396 65.92C333.103 65.6533 332.863 65.28 332.676 64.8L329.716 57.96L331.316 58.8H314.116L315.756 57.96L312.836 64.8C312.596 65.3067 312.343 65.68 312.076 65.92C311.81 66.16 311.463 66.28 311.036 66.28ZM322.716 41.64L316.276 56.8L315.316 56.04H330.116L329.236 56.8L322.796 41.64H322.716ZM342.377 66.28C341.897 66.28 341.524 66.1467 341.257 65.88C340.99 65.5867 340.857 65.1867 340.857 64.68V39.12C340.857 38.5867 340.99 38.1867 341.257 37.92C341.524 37.6533 341.897 37.52 342.377 37.52C342.804 37.52 343.137 37.6133 343.377 37.8C343.644 37.96 343.884 38.24 344.097 38.64L355.057 59.28H353.857L364.777 38.64C364.99 38.24 365.217 37.96 365.457 37.8C365.697 37.6133 366.044 37.52 366.497 37.52C366.95 37.52 367.31 37.6533 367.577 37.92C367.844 38.1867 367.977 38.5867 367.977 39.12V64.68C367.977 65.1867 367.844 65.5867 367.577 65.88C367.337 66.1467 366.964 66.28 366.457 66.28C365.977 66.28 365.604 66.1467 365.337 65.88C365.07 65.5867 364.937 65.1867 364.937 64.68V42.2H365.897L355.897 60.96C355.71 61.3067 355.51 61.56 355.297 61.72C355.11 61.8533 354.83 61.92 354.457 61.92C354.084 61.92 353.79 61.84 353.577 61.68C353.364 61.52 353.177 61.28 353.017 60.96L342.897 42.16H343.857V64.68C343.857 65.1867 343.724 65.5867 343.457 65.88C343.217 66.1467 342.857 66.28 342.377 66.28ZM376.796 66C376.209 66 375.756 65.8533 375.436 65.56C375.142 65.24 374.996 64.7867 374.996 64.2V39.6C374.996 39.0133 375.142 38.5733 375.436 38.28C375.756 37.96 376.209 37.8 376.796 37.8H391.676C392.129 37.8 392.476 37.92 392.716 38.16C392.956 38.4 393.076 38.7333 393.076 39.16C393.076 39.6133 392.956 39.96 392.716 40.2C392.476 40.44 392.129 40.56 391.676 40.56H378.196V50.32H390.836C391.289 50.32 391.636 50.44 391.876 50.68C392.116 50.8933 392.236 51.2267 392.236 51.68C392.236 52.1333 392.116 52.48 391.876 52.72C391.636 52.96 391.289 53.08 390.836 53.08H378.196V63.24H391.676C392.129 63.24 392.476 63.36 392.716 63.6C392.956 63.84 393.076 64.1733 393.076 64.6C393.076 65.0533 392.956 65.4 392.716 65.64C392.476 65.88 392.129 66 391.676 66H376.796ZM399.876 66.28C399.369 66.28 398.983 66.1467 398.716 65.88C398.449 65.5867 398.316 65.1733 398.316 64.64V39.2C398.316 38.6667 398.449 38.2533 398.716 37.96C398.983 37.6667 399.329 37.52 399.756 37.52C400.183 37.52 400.489 37.6 400.676 37.76C400.889 37.8933 401.129 38.1467 401.396 38.52L418.836 61.76H417.876V39.12C417.876 38.6133 418.009 38.2267 418.276 37.96C418.543 37.6667 418.929 37.52 419.436 37.52C419.916 37.52 420.276 37.6667 420.516 37.96C420.783 38.2267 420.916 38.6133 420.916 39.12V64.68C420.916 65.1867 420.796 65.5867 420.556 65.88C420.343 66.1467 420.023 66.28 419.596 66.28C419.196 66.28 418.876 66.2 418.636 66.04C418.396 65.88 418.143 65.6267 417.876 65.28L400.476 42.04H401.396V64.64C401.396 65.1733 401.263 65.5867 400.996 65.88C400.729 66.1467 400.356 66.28 399.876 66.28ZM436.485 66.28C435.979 66.28 435.579 66.1333 435.285 65.84C434.992 65.52 434.845 65.0933 434.845 64.56V40.64H425.845C425.365 40.64 424.992 40.5067 424.725 40.24C424.459 39.9733 424.325 39.6267 424.325 39.2C424.325 38.7467 424.459 38.4 424.725 38.16C424.992 37.92 425.365 37.8 425.845 37.8H447.165C447.645 37.8 448.019 37.92 448.285 38.16C448.552 38.4 448.685 38.7467 448.685 39.2C448.685 39.6533 448.552 40.0133 448.285 40.28C448.019 40.52 447.645 40.64 447.165 40.64H438.165V64.56C438.165 65.0933 438.019 65.52 437.725 65.84C437.459 66.1333 437.045 66.28 436.485 66.28ZM462.07 66.36C459.457 66.36 457.177 65.7733 455.23 64.6C453.31 63.4 451.817 61.72 450.75 59.56C449.71 57.4 449.19 54.84 449.19 51.88C449.19 49.64 449.483 47.64 450.07 45.88C450.683 44.0933 451.55 42.5867 452.67 41.36C453.79 40.1067 455.137 39.1467 456.71 38.48C458.31 37.7867 460.097 37.44 462.07 37.44C464.737 37.44 467.03 38.0267 468.95 39.2C470.897 40.3733 472.39 42.04 473.43 44.2C474.497 46.3333 475.03 48.88 475.03 51.84C475.03 54.08 474.723 56.0933 474.11 57.88C473.497 59.6667 472.63 61.1867 471.51 62.44C470.39 63.6933 469.03 64.6667 467.43 65.36C465.857 66.0267 464.07 66.36 462.07 66.36ZM462.07 63.44C464.097 63.44 465.803 62.9867 467.19 62.08C468.603 61.1733 469.683 59.8533 470.43 58.12C471.177 56.3867 471.55 54.3067 471.55 51.88C471.55 48.2267 470.723 45.4 469.07 43.4C467.443 41.3733 465.11 40.36 462.07 40.36C460.097 40.36 458.403 40.8133 456.99 41.72C455.603 42.6267 454.537 43.9467 453.79 45.68C453.043 47.3867 452.67 49.4533 452.67 51.88C452.67 55.5067 453.497 58.3467 455.15 60.4C456.803 62.4267 459.11 63.44 462.07 63.44Z" fill="url(#paint5_linear_424_31)"/>
<path d="M290.32 86C290.173 86 290.06 85.9633 289.98 85.89C289.907 85.81 289.87 85.6967 289.87 85.55V79.4C289.87 79.2533 289.907 79.1433 289.98 79.07C290.06 78.99 290.173 78.95 290.32 78.95H294.04C294.153 78.95 294.24 78.98 294.3 79.04C294.36 79.1 294.39 79.1833 294.39 79.29C294.39 79.4033 294.36 79.49 294.3 79.55C294.24 79.61 294.153 79.64 294.04 79.64H290.67V82.08H293.83C293.943 82.08 294.03 82.11 294.09 82.17C294.15 82.2233 294.18 82.3067 294.18 82.42C294.18 82.5333 294.15 82.62 294.09 82.68C294.03 82.74 293.943 82.77 293.83 82.77H290.67V85.31H294.04C294.153 85.31 294.24 85.34 294.3 85.4C294.36 85.46 294.39 85.5433 294.39 85.65C294.39 85.7633 294.36 85.85 294.3 85.91C294.24 85.97 294.153 86 294.04 86H290.32ZM297.882 86.09C297.569 86.09 297.262 86.0633 296.962 86.01C296.662 85.9567 296.382 85.88 296.122 85.78C295.869 85.68 295.639 85.5533 295.432 85.4C295.352 85.34 295.296 85.2733 295.262 85.2C295.236 85.12 295.229 85.0433 295.242 84.97C295.262 84.89 295.296 84.8233 295.342 84.77C295.396 84.7167 295.459 84.6867 295.532 84.68C295.606 84.6733 295.686 84.6967 295.772 84.75C296.072 84.9633 296.392 85.12 296.732 85.22C297.072 85.3133 297.456 85.36 297.882 85.36C298.482 85.36 298.926 85.25 299.212 85.03C299.506 84.8033 299.652 84.5067 299.652 84.14C299.652 83.84 299.546 83.6067 299.332 83.44C299.126 83.2667 298.776 83.13 298.282 83.03L297.242 82.82C296.616 82.6867 296.146 82.47 295.832 82.17C295.526 81.8633 295.372 81.4567 295.372 80.95C295.372 80.6367 295.436 80.3533 295.562 80.1C295.689 79.84 295.866 79.62 296.092 79.44C296.319 79.2533 296.589 79.11 296.902 79.01C297.216 78.91 297.562 78.86 297.942 78.86C298.362 78.86 298.752 78.92 299.112 79.04C299.479 79.1533 299.809 79.3267 300.102 79.56C300.176 79.62 300.226 79.69 300.252 79.77C300.279 79.8433 300.282 79.9167 300.262 79.99C300.242 80.0567 300.206 80.1133 300.152 80.16C300.106 80.2067 300.042 80.2333 299.962 80.24C299.889 80.2467 299.806 80.22 299.712 80.16C299.446 79.96 299.169 79.8167 298.882 79.73C298.596 79.6367 298.279 79.59 297.932 79.59C297.579 79.59 297.272 79.6433 297.012 79.75C296.759 79.8567 296.559 80.0133 296.412 80.22C296.272 80.42 296.202 80.6533 296.202 80.92C296.202 81.24 296.299 81.4933 296.492 81.68C296.692 81.8667 297.016 82.0033 297.462 82.09L298.502 82.31C299.176 82.45 299.672 82.6633 299.992 82.95C300.319 83.23 300.482 83.6133 300.482 84.1C300.482 84.3933 300.422 84.6633 300.302 84.91C300.182 85.1567 300.009 85.37 299.782 85.55C299.556 85.7233 299.282 85.8567 298.962 85.95C298.642 86.0433 298.282 86.09 297.882 86.09ZM303.748 86.07C303.622 86.07 303.522 86.0333 303.448 85.96C303.375 85.88 303.338 85.7733 303.338 85.64V79.66H301.088C300.968 79.66 300.875 79.6267 300.808 79.56C300.742 79.4933 300.708 79.4067 300.708 79.3C300.708 79.1867 300.742 79.1 300.808 79.04C300.875 78.98 300.968 78.95 301.088 78.95H306.418C306.538 78.95 306.632 78.98 306.698 79.04C306.765 79.1 306.798 79.1867 306.798 79.3C306.798 79.4133 306.765 79.5033 306.698 79.57C306.632 79.63 306.538 79.66 306.418 79.66H304.168V85.64C304.168 85.7733 304.132 85.88 304.058 85.96C303.992 86.0333 303.888 86.07 303.748 86.07ZM306.712 86.07C306.606 86.07 306.519 86.0467 306.452 86C306.392 85.9467 306.356 85.88 306.342 85.8C306.336 85.7133 306.356 85.6167 306.402 85.51L309.152 79.25C309.212 79.1167 309.282 79.0233 309.362 78.97C309.449 78.91 309.542 78.88 309.642 78.88C309.742 78.88 309.832 78.91 309.912 78.97C309.999 79.0233 310.069 79.1167 310.122 79.25L312.882 85.51C312.936 85.6167 312.956 85.7133 312.942 85.8C312.936 85.8867 312.902 85.9533 312.842 86C312.782 86.0467 312.699 86.07 312.592 86.07C312.472 86.07 312.376 86.04 312.302 85.98C312.229 85.9133 312.169 85.82 312.122 85.7L311.382 83.99L311.782 84.2H307.482L307.892 83.99L307.162 85.7C307.102 85.8267 307.039 85.92 306.972 85.98C306.906 86.04 306.819 86.07 306.712 86.07ZM309.632 79.91L308.022 83.7L307.782 83.51H311.482L311.262 83.7L309.652 79.91H309.632ZM317.175 86C317.029 86 316.915 85.9633 316.835 85.89C316.762 85.81 316.725 85.6967 316.725 85.55V79.4C316.725 79.2533 316.762 79.1433 316.835 79.07C316.915 78.99 317.029 78.95 317.175 78.95H320.895C321.009 78.95 321.095 78.98 321.155 79.04C321.215 79.1 321.245 79.1833 321.245 79.29C321.245 79.4033 321.215 79.49 321.155 79.55C321.095 79.61 321.009 79.64 320.895 79.64H317.525V82.08H320.685C320.799 82.08 320.885 82.11 320.945 82.17C321.005 82.2233 321.035 82.3067 321.035 82.42C321.035 82.5333 321.005 82.62 320.945 82.68C320.885 82.74 320.799 82.77 320.685 82.77H317.525V85.31H320.895C321.009 85.31 321.095 85.34 321.155 85.4C321.215 85.46 321.245 85.5433 321.245 85.65C321.245 85.7633 321.215 85.85 321.155 85.91C321.095 85.97 321.009 86 320.895 86H317.175ZM319.445 78.31C319.392 78.37 319.329 78.4033 319.255 78.41C319.189 78.41 319.129 78.3933 319.075 78.36C319.022 78.32 318.985 78.27 318.965 78.21C318.952 78.15 318.969 78.0833 319.015 78.01L319.905 76.72C319.965 76.6333 320.032 76.58 320.105 76.56C320.179 76.54 320.252 76.5433 320.325 76.57C320.399 76.59 320.455 76.6267 320.495 76.68C320.542 76.7333 320.565 76.7967 320.565 76.87C320.572 76.9367 320.545 77.0067 320.485 77.08L319.445 78.31ZM327.914 86.09C327.447 86.09 327.037 86.03 326.684 85.91C326.337 85.7833 326.044 85.6 325.804 85.36C325.564 85.1133 325.384 84.81 325.264 84.45C325.144 84.09 325.084 83.6767 325.084 83.21V79.3C325.084 79.16 325.117 79.0567 325.184 78.99C325.257 78.9167 325.36 78.88 325.494 78.88C325.627 78.88 325.727 78.9167 325.794 78.99C325.867 79.0567 325.904 79.16 325.904 79.3V83.17C325.904 83.9033 326.074 84.4533 326.414 84.82C326.754 85.18 327.254 85.36 327.914 85.36C328.574 85.36 329.07 85.18 329.404 84.82C329.737 84.4533 329.904 83.9033 329.904 83.17V79.3C329.904 79.16 329.94 79.0567 330.014 78.99C330.087 78.9167 330.19 78.88 330.324 78.88C330.45 78.88 330.547 78.9167 330.614 78.99C330.687 79.0567 330.724 79.16 330.724 79.3V83.21C330.724 83.83 330.617 84.3567 330.404 84.79C330.197 85.2233 329.884 85.55 329.464 85.77C329.044 85.9833 328.527 86.09 327.914 86.09ZM332.809 86.07C332.689 86.07 332.596 86.0367 332.529 85.97C332.462 85.8967 332.429 85.7967 332.429 85.67V79.28C332.429 79.1467 332.462 79.0467 332.529 78.98C332.596 78.9133 332.689 78.88 332.809 78.88C332.916 78.88 332.999 78.9033 333.059 78.95C333.126 78.99 333.186 79.06 333.239 79.16L335.979 84.32H335.679L338.409 79.16C338.462 79.06 338.519 78.99 338.579 78.95C338.639 78.9033 338.726 78.88 338.839 78.88C338.952 78.88 339.042 78.9133 339.109 78.98C339.176 79.0467 339.209 79.1467 339.209 79.28V85.67C339.209 85.7967 339.176 85.8967 339.109 85.97C339.049 86.0367 338.956 86.07 338.829 86.07C338.709 86.07 338.616 86.0367 338.549 85.97C338.482 85.8967 338.449 85.7967 338.449 85.67V80.05H338.689L336.189 84.74C336.142 84.8267 336.092 84.89 336.039 84.93C335.992 84.9633 335.922 84.98 335.829 84.98C335.736 84.98 335.662 84.96 335.609 84.92C335.556 84.88 335.509 84.82 335.469 84.74L332.939 80.04H333.179V85.67C333.179 85.7967 333.146 85.8967 333.079 85.97C333.019 86.0367 332.929 86.07 332.809 86.07ZM340.814 86.07C340.707 86.07 340.62 86.0467 340.554 86C340.494 85.9467 340.457 85.88 340.444 85.8C340.437 85.7133 340.457 85.6167 340.504 85.51L343.254 79.25C343.314 79.1167 343.384 79.0233 343.464 78.97C343.55 78.91 343.644 78.88 343.744 78.88C343.844 78.88 343.934 78.91 344.014 78.97C344.1 79.0233 344.17 79.1167 344.224 79.25L346.984 85.51C347.037 85.6167 347.057 85.7133 347.044 85.8C347.037 85.8867 347.004 85.9533 346.944 86C346.884 86.0467 346.8 86.07 346.694 86.07C346.574 86.07 346.477 86.04 346.404 85.98C346.33 85.9133 346.27 85.82 346.224 85.7L345.484 83.99L345.884 84.2H341.584L341.994 83.99L341.264 85.7C341.204 85.8267 341.14 85.92 341.074 85.98C341.007 86.04 340.92 86.07 340.814 86.07ZM343.734 79.91L342.124 83.7L341.884 83.51H345.584L345.364 83.7L343.754 79.91H343.734ZM350.677 86.07C350.57 86.07 350.484 86.0467 350.417 86C350.357 85.9467 350.32 85.88 350.307 85.8C350.3 85.7133 350.32 85.6167 350.367 85.51L353.117 79.25C353.177 79.1167 353.247 79.0233 353.327 78.97C353.414 78.91 353.507 78.88 353.607 78.88C353.707 78.88 353.797 78.91 353.877 78.97C353.964 79.0233 354.034 79.1167 354.087 79.25L356.847 85.51C356.9 85.6167 356.92 85.7133 356.907 85.8C356.9 85.8867 356.867 85.9533 356.807 86C356.747 86.0467 356.664 86.07 356.557 86.07C356.437 86.07 356.34 86.04 356.267 85.98C356.194 85.9133 356.134 85.82 356.087 85.7L355.347 83.99L355.747 84.2H351.447L351.857 83.99L351.127 85.7C351.067 85.8267 351.004 85.92 350.937 85.98C350.87 86.04 350.784 86.07 350.677 86.07ZM353.597 79.91L351.987 83.7L351.747 83.51H355.447L355.227 83.7L353.617 79.91H353.597ZM353.967 78.31C353.914 78.37 353.85 78.4033 353.777 78.41C353.71 78.41 353.65 78.3933 353.597 78.36C353.544 78.32 353.507 78.27 353.487 78.21C353.474 78.15 353.49 78.0833 353.537 78.01L354.427 76.72C354.487 76.6333 354.554 76.58 354.627 76.56C354.7 76.54 354.774 76.5433 354.847 76.57C354.92 76.59 354.977 76.6267 355.017 76.68C355.064 76.7333 355.087 76.7967 355.087 76.87C355.094 76.9367 355.067 77.0067 355.007 77.08L353.967 78.31ZM358.522 86.07C358.389 86.07 358.286 86.0333 358.212 85.96C358.146 85.88 358.112 85.7733 358.112 85.64V79.37C358.112 79.23 358.149 79.1267 358.222 79.06C358.296 78.9867 358.399 78.95 358.532 78.95H360.902C361.656 78.95 362.236 79.1267 362.642 79.48C363.049 79.8333 363.252 80.3367 363.252 80.99C363.252 81.4033 363.159 81.7633 362.972 82.07C362.792 82.37 362.526 82.6 362.172 82.76C361.819 82.9133 361.396 82.99 360.902 82.99L361.002 82.86H361.202C361.462 82.86 361.689 82.9267 361.882 83.06C362.076 83.1933 362.252 83.4067 362.412 83.7L363.372 85.49C363.426 85.5833 363.449 85.6767 363.442 85.77C363.442 85.8567 363.412 85.93 363.352 85.99C363.292 86.0433 363.206 86.07 363.092 86.07C362.979 86.07 362.886 86.0433 362.812 85.99C362.739 85.9367 362.676 85.86 362.622 85.76L361.532 83.74C361.379 83.4533 361.202 83.2633 361.002 83.17C360.802 83.07 360.539 83.02 360.212 83.02H358.932V85.64C358.932 85.7733 358.899 85.88 358.832 85.96C358.766 86.0333 358.662 86.07 358.522 86.07ZM358.932 82.37H360.782C361.329 82.37 361.742 82.2567 362.022 82.03C362.302 81.7967 362.442 81.45 362.442 80.99C362.442 80.5433 362.302 80.2067 362.022 79.98C361.742 79.7467 361.329 79.63 360.782 79.63H358.932V82.37ZM365.252 86C365.105 86 364.992 85.9633 364.912 85.89C364.838 85.81 364.802 85.6967 364.802 85.55V79.4C364.802 79.2533 364.838 79.1433 364.912 79.07C364.992 78.99 365.105 78.95 365.252 78.95H368.972C369.085 78.95 369.172 78.98 369.232 79.04C369.292 79.1 369.322 79.1833 369.322 79.29C369.322 79.4033 369.292 79.49 369.232 79.55C369.172 79.61 369.085 79.64 368.972 79.64H365.602V82.08H368.762C368.875 82.08 368.962 82.11 369.022 82.17C369.082 82.2233 369.112 82.3067 369.112 82.42C369.112 82.5333 369.082 82.62 369.022 82.68C368.962 82.74 368.875 82.77 368.762 82.77H365.602V85.31H368.972C369.085 85.31 369.172 85.34 369.232 85.4C369.292 85.46 369.322 85.5433 369.322 85.65C369.322 85.7633 369.292 85.85 369.232 85.91C369.172 85.97 369.085 86 368.972 86H365.252ZM370.345 86.07C370.238 86.07 370.152 86.0467 370.085 86C370.025 85.9467 369.988 85.88 369.975 85.8C369.968 85.7133 369.988 85.6167 370.035 85.51L372.785 79.25C372.845 79.1167 372.915 79.0233 372.995 78.97C373.082 78.91 373.175 78.88 373.275 78.88C373.375 78.88 373.465 78.91 373.545 78.97C373.632 79.0233 373.702 79.1167 373.755 79.25L376.515 85.51C376.568 85.6167 376.588 85.7133 376.575 85.8C376.568 85.8867 376.535 85.9533 376.475 86C376.415 86.0467 376.332 86.07 376.225 86.07C376.105 86.07 376.008 86.04 375.935 85.98C375.862 85.9133 375.802 85.82 375.755 85.7L375.015 83.99L375.415 84.2H371.115L371.525 83.99L370.795 85.7C370.735 85.8267 370.672 85.92 370.605 85.98C370.538 86.04 370.452 86.07 370.345 86.07ZM373.265 79.91L371.655 83.7L371.415 83.51H375.115L374.895 83.7L373.285 79.91H373.265ZM382.638 86.09C382.325 86.09 382.018 86.0633 381.718 86.01C381.418 85.9567 381.138 85.88 380.878 85.78C380.625 85.68 380.395 85.5533 380.188 85.4C380.108 85.34 380.052 85.2733 380.018 85.2C379.992 85.12 379.985 85.0433 379.998 84.97C380.018 84.89 380.052 84.8233 380.098 84.77C380.152 84.7167 380.215 84.6867 380.288 84.68C380.362 84.6733 380.442 84.6967 380.528 84.75C380.828 84.9633 381.148 85.12 381.488 85.22C381.828 85.3133 382.212 85.36 382.638 85.36C383.238 85.36 383.682 85.25 383.968 85.03C384.262 84.8033 384.408 84.5067 384.408 84.14C384.408 83.84 384.302 83.6067 384.088 83.44C383.882 83.2667 383.532 83.13 383.038 83.03L381.998 82.82C381.372 82.6867 380.902 82.47 380.588 82.17C380.282 81.8633 380.128 81.4567 380.128 80.95C380.128 80.6367 380.192 80.3533 380.318 80.1C380.445 79.84 380.622 79.62 380.848 79.44C381.075 79.2533 381.345 79.11 381.658 79.01C381.972 78.91 382.318 78.86 382.698 78.86C383.118 78.86 383.508 78.92 383.868 79.04C384.235 79.1533 384.565 79.3267 384.858 79.56C384.932 79.62 384.982 79.69 385.008 79.77C385.035 79.8433 385.038 79.9167 385.018 79.99C384.998 80.0567 384.962 80.1133 384.908 80.16C384.862 80.2067 384.798 80.2333 384.718 80.24C384.645 80.2467 384.562 80.22 384.468 80.16C384.202 79.96 383.925 79.8167 383.638 79.73C383.352 79.6367 383.035 79.59 382.688 79.59C382.335 79.59 382.028 79.6433 381.768 79.75C381.515 79.8567 381.315 80.0133 381.168 80.22C381.028 80.42 380.958 80.6533 380.958 80.92C380.958 81.24 381.055 81.4933 381.248 81.68C381.448 81.8667 381.772 82.0033 382.218 82.09L383.258 82.31C383.932 82.45 384.428 82.6633 384.748 82.95C385.075 83.23 385.238 83.6133 385.238 84.1C385.238 84.3933 385.178 84.6633 385.058 84.91C384.938 85.1567 384.765 85.37 384.538 85.55C384.312 85.7233 384.038 85.8567 383.718 85.95C383.398 86.0433 383.038 86.09 382.638 86.09ZM386.961 86C386.814 86 386.701 85.9633 386.621 85.89C386.547 85.81 386.511 85.6967 386.511 85.55V79.4C386.511 79.2533 386.547 79.1433 386.621 79.07C386.701 78.99 386.814 78.95 386.961 78.95H390.681C390.794 78.95 390.881 78.98 390.941 79.04C391.001 79.1 391.031 79.1833 391.031 79.29C391.031 79.4033 391.001 79.49 390.941 79.55C390.881 79.61 390.794 79.64 390.681 79.64H387.311V82.08H390.471C390.584 82.08 390.671 82.11 390.731 82.17C390.791 82.2233 390.821 82.3067 390.821 82.42C390.821 82.5333 390.791 82.62 390.731 82.68C390.671 82.74 390.584 82.77 390.471 82.77H387.311V85.31H390.681C390.794 85.31 390.881 85.34 390.941 85.4C391.001 85.46 391.031 85.5433 391.031 85.65C391.031 85.7633 391.001 85.85 390.941 85.91C390.881 85.97 390.794 86 390.681 86H386.961ZM395.531 86.09C394.778 86.09 394.141 85.9467 393.621 85.66C393.108 85.3733 392.718 84.96 392.451 84.42C392.185 83.88 392.051 83.2333 392.051 82.48C392.051 81.92 392.125 81.4167 392.271 80.97C392.425 80.5233 392.645 80.1467 392.931 79.84C393.225 79.5267 393.578 79.2867 393.991 79.12C394.411 78.9467 394.885 78.86 395.411 78.86C395.831 78.86 396.238 78.92 396.631 79.04C397.025 79.1533 397.375 79.3367 397.681 79.59C397.761 79.65 397.811 79.7167 397.831 79.79C397.851 79.8633 397.848 79.9367 397.821 80.01C397.801 80.0833 397.765 80.1467 397.711 80.2C397.665 80.2467 397.601 80.2733 397.521 80.28C397.448 80.2867 397.371 80.2633 397.291 80.21C397.018 79.9967 396.728 79.8433 396.421 79.75C396.115 79.65 395.775 79.6 395.401 79.6C394.868 79.6 394.415 79.7133 394.041 79.94C393.675 80.1667 393.395 80.4933 393.201 80.92C393.015 81.3467 392.921 81.8667 392.921 82.48C392.921 83.4133 393.138 84.1267 393.571 84.62C394.011 85.1133 394.671 85.36 395.551 85.36C395.871 85.36 396.185 85.33 396.491 85.27C396.798 85.2033 397.088 85.1133 397.361 85L397.181 85.47V82.98H395.751C395.631 82.98 395.541 82.95 395.481 82.89C395.421 82.83 395.391 82.75 395.391 82.65C395.391 82.5433 395.421 82.4633 395.481 82.41C395.541 82.3567 395.631 82.33 395.751 82.33H397.541C397.655 82.33 397.741 82.36 397.801 82.42C397.861 82.48 397.891 82.5667 397.891 82.68V85.29C397.891 85.39 397.875 85.4733 397.841 85.54C397.808 85.6067 397.751 85.6567 397.671 85.69C397.391 85.8033 397.055 85.9 396.661 85.98C396.275 86.0533 395.898 86.09 395.531 86.09ZM402.347 86.09C401.881 86.09 401.471 86.03 401.117 85.91C400.771 85.7833 400.477 85.6 400.237 85.36C399.997 85.1133 399.817 84.81 399.697 84.45C399.577 84.09 399.517 83.6767 399.517 83.21V79.3C399.517 79.16 399.551 79.0567 399.617 78.99C399.691 78.9167 399.794 78.88 399.927 78.88C400.061 78.88 400.161 78.9167 400.227 78.99C400.301 79.0567 400.337 79.16 400.337 79.3V83.17C400.337 83.9033 400.507 84.4533 400.847 84.82C401.187 85.18 401.687 85.36 402.347 85.36C403.007 85.36 403.504 85.18 403.837 84.82C404.171 84.4533 404.337 83.9033 404.337 83.17V79.3C404.337 79.16 404.374 79.0567 404.447 78.99C404.521 78.9167 404.624 78.88 404.757 78.88C404.884 78.88 404.981 78.9167 405.047 78.99C405.121 79.0567 405.157 79.16 405.157 79.3V83.21C405.157 83.83 405.051 84.3567 404.837 84.79C404.631 85.2233 404.317 85.55 403.897 85.77C403.477 85.9833 402.961 86.09 402.347 86.09ZM407.253 86.07C407.119 86.07 407.016 86.0333 406.943 85.96C406.876 85.88 406.843 85.7733 406.843 85.64V79.37C406.843 79.23 406.879 79.1267 406.953 79.06C407.026 78.9867 407.129 78.95 407.263 78.95H409.633C410.386 78.95 410.966 79.1267 411.373 79.48C411.779 79.8333 411.983 80.3367 411.983 80.99C411.983 81.4033 411.889 81.7633 411.703 82.07C411.523 82.37 411.256 82.6 410.903 82.76C410.549 82.9133 410.126 82.99 409.633 82.99L409.733 82.86H409.933C410.193 82.86 410.419 82.9267 410.613 83.06C410.806 83.1933 410.983 83.4067 411.143 83.7L412.103 85.49C412.156 85.5833 412.179 85.6767 412.173 85.77C412.173 85.8567 412.143 85.93 412.083 85.99C412.023 86.0433 411.936 86.07 411.823 86.07C411.709 86.07 411.616 86.0433 411.543 85.99C411.469 85.9367 411.406 85.86 411.353 85.76L410.263 83.74C410.109 83.4533 409.933 83.2633 409.733 83.17C409.533 83.07 409.269 83.02 408.943 83.02H407.663V85.64C407.663 85.7733 407.629 85.88 407.563 85.96C407.496 86.0333 407.393 86.07 407.253 86.07ZM407.663 82.37H409.513C410.059 82.37 410.473 82.2567 410.753 82.03C411.033 81.7967 411.173 81.45 411.173 80.99C411.173 80.5433 411.033 80.2067 410.753 79.98C410.473 79.7467 410.059 79.63 409.513 79.63H407.663V82.37ZM413.275 86.07C413.168 86.07 413.081 86.0467 413.015 86C412.955 85.9467 412.918 85.88 412.905 85.8C412.898 85.7133 412.918 85.6167 412.965 85.51L415.715 79.25C415.775 79.1167 415.845 79.0233 415.925 78.97C416.011 78.91 416.105 78.88 416.205 78.88C416.305 78.88 416.395 78.91 416.475 78.97C416.561 79.0233 416.631 79.1167 416.685 79.25L419.445 85.51C419.498 85.6167 419.518 85.7133 419.505 85.8C419.498 85.8867 419.465 85.9533 419.405 86C419.345 86.0467 419.261 86.07 419.155 86.07C419.035 86.07 418.938 86.04 418.865 85.98C418.791 85.9133 418.731 85.82 418.685 85.7L417.945 83.99L418.345 84.2H414.045L414.455 83.99L413.725 85.7C413.665 85.8267 413.601 85.92 413.535 85.98C413.468 86.04 413.381 86.07 413.275 86.07ZM416.195 79.91L414.585 83.7L414.345 83.51H418.045L417.825 83.7L416.215 79.91H416.195Z" fill="url(#paint6_linear_424_31)"/>
<defs>
<linearGradient id="paint0_linear_424_31" x1="105.5" y1="27.2148" x2="105.5" y2="75.5968" gradientUnits="userSpaceOnUse">
<stop stop-color="#078E70"/>
<stop offset="0.458333" stop-color="#93E7BC"/>
<stop offset="0.885417" stop-color="#3D1A78"/>
</linearGradient>
<linearGradient id="paint1_linear_424_31" x1="26.4757" y1="22.3011" x2="179.758" y2="22.3011" gradientUnits="userSpaceOnUse">
<stop stop-color="#078E70"/>
<stop offset="0.489583" stop-color="#97EABE"/>
<stop offset="1" stop-color="#3D1A78"/>
</linearGradient>
<linearGradient id="paint2_linear_424_31" x1="35.1229" y1="1.04893" x2="55.3703" y2="1.04893" gradientUnits="userSpaceOnUse">
<stop stop-color="#078E70"/>
<stop offset="0.489583" stop-color="#97EABE"/>
<stop offset="1" stop-color="#3D1A78"/>
</linearGradient>
<linearGradient id="paint3_linear_424_31" x1="91.0224" y1="1.04893" x2="118.729" y2="1.04893" gradientUnits="userSpaceOnUse">
<stop stop-color="#078E70"/>
<stop offset="0.489583" stop-color="#97EABE"/>
<stop offset="1" stop-color="#3D1A78"/>
</linearGradient>
<linearGradient id="paint4_linear_424_31" x1="151.47" y1="1.04893" x2="182.285" y2="1.04893" gradientUnits="userSpaceOnUse">
<stop stop-color="#078E70"/>
<stop offset="0.489583" stop-color="#97EABE"/>
<stop offset="1" stop-color="#3D1A78"/>
</linearGradient>
<linearGradient id="paint5_linear_424_31" x1="233.029" y1="31.0126" x2="458.799" y2="31.0126" gradientUnits="userSpaceOnUse">
<stop stop-color="#078E70"/>
<stop offset="0.489583" stop-color="#97EABE"/>
<stop offset="1" stop-color="#3D1A78"/>
</linearGradient>
<linearGradient id="paint6_linear_424_31" x1="291.643" y1="77.6188" x2="410.283" y2="77.6188" gradientUnits="userSpaceOnUse">
<stop stop-color="#078E70"/>
<stop offset="0.489583" stop-color="#97EABE"/>
<stop offset="1" stop-color="#3D1A78"/>
</linearGradient>
</defs>
</svg>
