<svg width="186" height="23" viewBox="0 0 186 23" fill="none" xmlns="http://www.w3.org/2000/svg">
<path d="M0.808594 23L2.00859 16.19H1.04859V15.71H2.06859L3.44859 7.76H2.51859V7.31H3.53859L4.73859 0.499998H5.18859L4.01859 7.31H10.4086L11.6086 0.499998H12.0586L10.8886 7.31H11.8186V7.76H10.7986L9.41859 15.71H10.3486V16.19H9.32859L8.15859 23H7.67859L8.87859 16.19H2.45859L1.28859 23H0.808594ZM3.92859 7.76L2.54859 15.71H8.93859L10.3186 7.76H3.92859ZM15.2227 0.499998H31.2727V3.02C27.2527 2.15 24.2227 0.979999 17.7127 0.979999V10.19C18.7627 8.93 20.3527 8.45 21.8227 8.75C23.3227 9.05 24.6727 10.1 26.2327 10.31C27.1627 10.46 28.2727 10.46 28.5127 9.2C28.9927 11.36 28.0627 12.53 26.5927 12.74C23.7127 13.1 21.4627 9.74 19.1527 10.01C18.4327 10.1 17.7127 10.52 17.7127 11.39V23H15.2227V0.499998ZM37.4505 8C41.4105 8 44.6205 11.36 44.6205 15.5C44.6205 19.64 41.4105 23 37.4505 23C33.5205 23 30.3105 19.64 30.3105 15.5C30.3105 11.36 33.5205 8 37.4505 8ZM37.4505 8.48C34.9005 8.48 32.8005 11.63 32.8005 15.5C32.8005 19.4 34.9005 22.55 37.4505 22.55C40.0305 22.55 42.1305 19.4 42.1305 15.5C42.1305 11.63 40.0305 8.48 37.4505 8.48ZM47.4199 8H49.9099V9.29C52.4899 8.09 56.3899 8 58.6699 8V10.52C56.8699 9.89 52.4599 8.48 49.9099 9.86V23H47.4199V8ZM67.2537 13.67V23H64.7637V13.67L57.2637 0.499998H60.1437L67.1937 12.86C69.5637 8.69 71.2737 4.37 72.2637 0.499998H74.7537L67.2537 13.67ZM78.4369 8C82.3969 8 85.6069 11.36 85.6069 15.5C85.6069 19.64 82.3969 23 78.4369 23C74.5069 23 71.2969 19.64 71.2969 15.5C71.2969 11.36 74.5069 8 78.4369 8ZM78.4369 8.48C75.8869 8.48 73.7869 11.63 73.7869 15.5C73.7869 19.4 75.8869 22.55 78.4369 22.55C81.0169 22.55 83.1169 19.4 83.1169 15.5C83.1169 11.63 81.0169 8.48 78.4369 8.48ZM101.941 23H99.4512V21.71C97.5912 22.46 94.9812 23 92.7312 23C90.4512 23 88.2012 22.52 88.2012 19.67V8H90.6912V19.67C90.6912 21.5 91.6812 22.25 92.9112 22.43C94.8612 22.73 97.7712 21.68 99.4512 20.45V8H101.941V23ZM104.9 8H107.39V9.29C109.97 8.09 113.87 8 116.15 8V10.52C114.35 9.89 109.94 8.48 107.39 9.86V23H104.9V8ZM119.64 0.499998L127.17 22.28C129.39 15.14 131.28 8.39 132.69 0.499998H135.18L127.41 23H124.77L117 0.499998H119.64ZM140.781 8C144.741 8 147.951 11.36 147.951 15.5C147.951 19.64 144.741 23 140.781 23C136.851 23 133.641 19.64 133.641 15.5C133.641 11.36 136.851 8 140.781 8ZM140.781 8.48C138.231 8.48 136.131 11.63 136.131 15.5C136.131 19.4 138.231 22.55 140.781 22.55C143.361 22.55 145.461 19.4 145.461 15.5C145.461 11.63 143.361 8.48 140.781 8.48ZM150.545 8H153.035V23H150.545V8ZM151.805 4.85C152.495 4.85 153.035 5.39 153.035 6.08C153.035 6.77 152.495 7.34 151.805 7.34C151.115 7.34 150.545 6.77 150.545 6.08C150.545 5.39 151.115 4.85 151.805 4.85ZM167.576 8.75C168.596 9.2 169.736 10.13 169.736 11.18C169.736 12.23 168.896 13.01 167.216 12.86C168.206 10.46 166.226 8.48 163.886 8.48C161.396 8.48 159.506 10.34 158.756 12.59C157.436 16.61 159.446 21.98 164.246 22.07C166.256 22.1 168.446 21.2 169.466 19.37L169.736 19.55C168.386 22.01 165.986 23 163.586 23C159.776 23 155.906 20.18 155.906 15.5C155.906 11.18 159.356 8 163.586 8C164.996 8 166.496 8.3 167.576 8.75ZM174.551 12.11C176.111 13.61 178.541 14.84 180.731 14.27C183.911 13.46 183.311 8.48 179.501 8.48C177.191 8.48 175.391 10.07 174.551 12.11ZM180.311 15.32C178.151 15.11 175.901 14 174.371 12.59C173.051 16.61 175.091 21.98 179.861 22.07C181.871 22.1 184.061 21.2 185.081 19.37L185.351 19.55C184.001 22.01 181.601 23 179.201 23C175.391 23 171.521 20.18 171.521 15.5C171.521 11.18 174.971 8 179.201 8C183.401 8 185.321 10.07 185.321 11.99C185.351 13.88 183.551 15.65 180.311 15.32Z" fill="url(#paint0_linear_522_591)"/>
<defs>
<linearGradient id="paint0_linear_522_591" x1="-157.168" y1="0" x2="-157.168" y2="38.4375" gradientUnits="userSpaceOnUse">
<stop stop-color="#E40303"/>
<stop offset="0.192708" stop-color="#FF8C00"/>
<stop offset="0.359375" stop-color="#FFED00"/>
<stop offset="0.527238" stop-color="#007F26"/>
<stop offset="0.703125" stop-color="#004DFF"/>
<stop offset="0.848958" stop-color="#750787"/>
</linearGradient>
</defs>
</svg>
