<svg width="299" height="649" viewBox="0 0 299 649" fill="none" xmlns="http://www.w3.org/2000/svg">
<path fill-rule="evenodd" clip-rule="evenodd" d="M-276.661 36.0374C-249.666 -3.93856 -235.789 -64.0261 -188.937 -75.342C-140.666 -87.0005 -101.828 -34.0776 -55.065 -17.4826C-19.6967 -4.93129 25.2903 -16.5363 51.7544 10.0729C78.0922 36.555 59.8472 84.2022 78.3464 116.66C106.157 165.455 189.341 187.011 184.521 243.019C180.099 294.407 99.6043 296.468 60.0262 329.559C21.0899 362.113 4.53576 425.9 -45.3224 435.188C-95.0287 444.447 -136.648 398.94 -180.825 374.426C-221.655 351.769 -265.321 333.781 -294.202 297.08C-324.996 257.95 -351.988 210.905 -348.646 161.17C-345.355 112.184 -304.147 76.7413 -276.661 36.0374Z" stroke="url(#paint0_linear_356_110)" stroke-width="2"/>
<path fill-rule="evenodd" clip-rule="evenodd" d="M50.0938 58.4922C81.972 94.6939 136.619 123.273 135.757 171.465C134.868 221.116 73.8625 245.355 46.0131 286.423C24.9498 317.484 24.8372 363.944 -7.58478 382.844C-39.852 401.654 -81.3596 371.985 -117.433 381.703C-171.663 396.312 -213.496 471.373 -266.48 452.588C-315.093 435.352 -296.792 356.938 -318.835 310.295C-340.52 264.409 -398.072 232.307 -394.489 181.718C-390.917 131.283 -336.386 102.482 -301.526 65.9131C-269.306 32.1149 -240.89 -5.60487 -198.093 -24.3001C-152.463 -44.2326 -100.131 -58.4914 -52.8459 -42.7175C-6.27291 -27.1813 17.6351 21.6312 50.0938 58.4922Z" stroke="url(#paint1_linear_356_110)" stroke-width="2"/>
<path fill-rule="evenodd" clip-rule="evenodd" d="M104.388 372.821C83.6985 416.396 78.9967 477.885 34.3731 496.105C-11.6014 514.876 -57.9417 468.381 -106.666 458.993C-143.517 451.892 -186.253 470.117 -216.411 447.781C-246.425 425.552 -235.538 375.706 -258.699 346.392C-293.517 302.324 -378.994 293.497 -382.635 237.399C-385.976 185.93 -306.702 171.811 -272.538 133.155C-238.929 95.1261 -232.136 29.5772 -184.236 12.9117C-136.483 -3.70297 -88.5045 35.0421 -41.1492 52.6486C2.61885 68.9213 48.4895 80.1514 82.5524 112.102C118.87 146.168 152.617 188.629 156.777 238.302C160.875 287.227 125.454 328.453 104.388 372.821Z" stroke="url(#paint2_linear_356_110)" stroke-width="2"/>
<defs>
<linearGradient id="paint0_linear_356_110" x1="-291.06" y1="47.132" x2="136.645" y2="326.158" gradientUnits="userSpaceOnUse">
<stop stop-color="#FDF435"/>
<stop offset="0.317708" stop-color="#FCFCFC"/>
<stop offset="0.677083" stop-color="#9C5CD4"/>
<stop offset="1" stop-color="#2C2C2C"/>
</linearGradient>
<linearGradient id="paint1_linear_356_110" x1="42.9881" y1="41.7611" x2="-334.862" y2="385.297" gradientUnits="userSpaceOnUse">
<stop stop-color="#FDF435"/>
<stop offset="0.317708" stop-color="#FCFCFC"/>
<stop offset="0.677083" stop-color="#9C5CD4"/>
<stop offset="1" stop-color="#2C2C2C"/>
</linearGradient>
<linearGradient id="paint2_linear_356_110" x1="116.958" y1="359.691" x2="-347.779" y2="148.016" gradientUnits="userSpaceOnUse">
<stop stop-color="#FDF435"/>
<stop offset="0.317708" stop-color="#FCFCFC"/>
<stop offset="0.677083" stop-color="#9C5CD4"/>
<stop offset="1" stop-color="#2C2C2C"/>
</linearGradient>
</defs>
</svg>
