<svg width="1440" height="1024" viewBox="0 0 1440 1024" fill="none" xmlns="http://www.w3.org/2000/svg">
<g clip-path="url(#clip0_552_16)">
<rect width="1440" height="1024" fill="white"/>
<path fill-rule="evenodd" clip-rule="evenodd" d="M1870.18 1318.03C1844.99 1411.47 1754.87 1464.09 1673.19 1515.98C1573.97 1579.01 1474.6 1662.16 1358.67 1642.97C1227.58 1621.27 1113.74 1530.66 1051.74 1413.12C987.171 1290.69 947.453 1127.58 1027.13 1014.36C1102.72 906.96 1269.71 963.133 1395.33 924.905C1487.34 896.903 1562.89 792.234 1653.77 823.663C1744.86 855.161 1756.57 974.885 1795.22 1063.2C1832.13 1147.51 1894.14 1229.14 1870.18 1318.03Z" stroke="url(#paint0_linear_552_16)" stroke-width="2"/>
<path fill-rule="evenodd" clip-rule="evenodd" d="M1959.55 950.499C1997.87 1039.37 1959.94 1136.6 1928.17 1228C1889.58 1339.03 1863.37 1465.92 1760.6 1522.91C1644.4 1587.35 1498.91 1587.07 1377.3 1533.48C1250.64 1477.66 1118.19 1374.53 1110.28 1236.31C1102.79 1105.19 1268.54 1045.46 1343.22 937.461C1397.93 858.354 1392.1 729.399 1482.84 697.563C1573.79 665.657 1657.34 752.199 1742.5 797.382C1823.8 840.521 1923.1 865.963 1959.55 950.499Z" stroke="url(#paint1_linear_552_16)" stroke-width="2"/>
<path fill-rule="evenodd" clip-rule="evenodd" d="M-94.5165 1330.26C-173.034 1368.46 -262.223 1338.28 -345.907 1313.41C-447.566 1283.2 -563.005 1264.81 -618.602 1174.53C-681.463 1072.46 -687.21 941.322 -643.916 829.513C-598.824 713.06 -511.33 589.437 -387.084 576.621C-269.217 564.464 -208.558 711.391 -108.15 774.252C-34.6003 820.298 81.3818 809.734 113.812 890.206C146.313 970.856 71.7572 1049.72 34.5426 1128.33C-0.988467 1203.39 -19.8289 1293.93 -94.5165 1330.26Z" stroke="url(#paint2_linear_552_16)" stroke-width="2"/>
<path fill-rule="evenodd" clip-rule="evenodd" d="M-619.728 1248.18C-675.465 1180.97 -667.311 1087.17 -663.014 999.971C-657.794 894.048 -667.321 777.542 -592.816 702.109C-508.578 616.822 -382.548 580.119 -263.659 595.643C-139.832 611.812 1.0229 667.47 42.9567 785.126C82.7374 896.74 -45.5983 990.533 -82.8353 1102.99C-110.112 1185.37 -72.3269 1295.53 -142.804 1346.13C-213.438 1396.84 -307.746 1343.13 -392.941 1325.63C-474.282 1308.93 -566.709 1312.11 -619.728 1248.18Z" stroke="url(#paint3_linear_552_16)" stroke-width="2"/>
<path fill-rule="evenodd" clip-rule="evenodd" d="M148.333 1015.53C153.581 1102.69 91.5712 1173.54 36.579 1241.34C-30.2253 1323.71 -91.386 1423.33 -196.066 1440.16C-314.422 1459.18 -437.782 1414.31 -524.519 1331.54C-614.859 1245.32 -695.6 1117.18 -659.902 997.488C-626.038 883.938 -467.082 884.11 -370.588 815.393C-299.905 765.057 -265.289 653.858 -178.532 654.685C-91.5835 655.514 -47.2411 754.572 11.1482 819.032C66.8961 880.575 143.34 932.624 148.333 1015.53Z" stroke="url(#paint4_linear_552_16)" stroke-width="2"/>
<path fill-rule="evenodd" clip-rule="evenodd" d="M1391.21 177.07C1363.31 145.165 1366.08 99.5418 1367.06 57.1754C1368.24 5.70891 1362.14 -50.7054 1397.33 -88.2566C1437.13 -130.714 1497.82 -150.126 1555.71 -144.104C1616 -137.832 1685.06 -112.614 1706.9 -56.0533C1727.62 -2.39701 1666.54 44.748 1649.9 99.7919C1637.71 140.112 1657.45 193.089 1623.89 218.539C1590.26 244.045 1543.81 219.181 1502.25 211.773C1462.57 204.7 1417.76 207.42 1391.21 177.07Z" stroke="url(#paint5_linear_552_16)" stroke-width="2"/>
<path fill-rule="evenodd" clip-rule="evenodd" d="M1418.65 -194.249C1460.08 -203.188 1498.64 -178.655 1535.22 -157.265C1579.67 -131.279 1631.97 -109.273 1647.75 -60.2867C1665.6 -4.90069 1653.16 57.5926 1619.83 105.307C1585.12 155.004 1529.59 203.183 1469.53 194.873C1412.55 186.989 1400.93 110.709 1360.85 69.4732C1331.49 39.2674 1275.58 30.8503 1269.59 -10.8368C1263.58 -52.6159 1307.85 -81.1887 1334.47 -113.953C1359.89 -145.234 1379.24 -185.747 1418.65 -194.249Z" stroke="url(#paint6_linear_552_16)" stroke-width="2"/>
<path fill-rule="evenodd" clip-rule="evenodd" d="M1633.37 -142.903C1652.24 -111.769 1643.12 -73.583 1636.01 -37.8863C1627.37 5.4778 1624.16 54.1099 1588.81 80.6541C1548.84 110.666 1494.62 118.081 1446.54 104.394C1396.46 90.1382 1341.78 58.5537 1331.7 7.46167C1322.13 -41.0069 1380.8 -71.8248 1403.05 -115.922C1419.35 -148.223 1410.51 -195.971 1442.68 -212.52C1474.92 -229.106 1510.52 -201.177 1544.58 -188.741C1577.11 -176.868 1615.42 -172.518 1633.37 -142.903Z" stroke="url(#paint7_linear_552_16)" stroke-width="2"/>
<path fill-rule="evenodd" clip-rule="evenodd" d="M-111.609 87.8307C-139.511 55.925 -136.746 10.3021 -135.769 -32.0643C-134.582 -83.5308 -140.686 -139.945 -105.491 -177.496C-65.6979 -219.954 -5.00764 -239.366 52.8814 -233.344C113.175 -227.072 182.234 -201.853 204.078 -145.293C224.8 -91.6368 163.717 -44.4917 147.076 10.5521C134.887 50.8725 154.623 103.849 121.066 129.299C87.4356 154.805 40.9889 129.941 -0.574988 122.533C-40.2586 115.461 -85.0689 118.18 -111.609 87.8307Z" stroke="url(#paint8_linear_552_16)" stroke-width="2"/>
<path fill-rule="evenodd" clip-rule="evenodd" d="M-84.1783 -283.489C-42.7469 -292.428 -4.18222 -267.895 32.4007 -246.504C76.8414 -220.519 129.144 -198.513 144.929 -149.526C162.775 -94.1404 150.336 -31.6471 117.009 16.0674C82.2966 65.764 26.7648 113.943 -33.2952 105.633C-90.2713 97.7497 -101.898 21.4693 -141.977 -19.7665C-171.336 -49.9723 -227.239 -58.3895 -233.234 -100.076C-239.241 -141.856 -194.979 -170.428 -168.353 -203.192C-142.931 -234.474 -123.589 -274.986 -84.1783 -283.489Z" stroke="url(#paint9_linear_552_16)" stroke-width="2"/>
<path fill-rule="evenodd" clip-rule="evenodd" d="M130.542 -232.142C149.411 -201.009 140.3 -162.823 133.186 -127.126C124.543 -83.7619 121.333 -35.1298 85.9847 -8.58569C46.0179 21.4264 -8.2069 28.8408 -56.2868 15.1539C-106.364 0.898444 -161.044 -30.6861 -171.129 -81.7781C-180.696 -130.247 -122.022 -161.065 -99.7742 -205.161C-83.4776 -237.463 -92.3107 -285.21 -60.1446 -301.76C-27.9074 -318.346 7.69559 -290.417 41.7588 -277.981C74.2812 -266.107 112.594 -261.757 130.542 -232.142Z" stroke="url(#paint10_linear_552_16)" stroke-width="2"/>
</g>
<defs>
<linearGradient id="paint0_linear_552_16" x1="1854.94" y1="1362.24" x2="1003.62" y2="1055.6" gradientUnits="userSpaceOnUse">
<stop stop-color="#E40303"/>
<stop offset="0.229211" stop-color="#FF8C00"/>
<stop offset="0.444575" stop-color="#FFED00"/>
<stop offset="0.639748" stop-color="#008026"/>
<stop offset="0.828191" stop-color="#004DFF"/>
<stop offset="1" stop-color="#750787"/>
</linearGradient>
<linearGradient id="paint1_linear_552_16" x1="1975.08" y1="994.615" x2="1117.47" y2="1283.23" gradientUnits="userSpaceOnUse">
<stop stop-color="#E40303"/>
<stop offset="0.229211" stop-color="#FF8C00"/>
<stop offset="0.444575" stop-color="#FFED00"/>
<stop offset="0.639748" stop-color="#008026"/>
<stop offset="0.828191" stop-color="#004DFF"/>
<stop offset="1" stop-color="#750787"/>
</linearGradient>
<linearGradient id="paint2_linear_552_16" x1="-133.637" y1="1346.08" x2="-429.077" y2="585.036" gradientUnits="userSpaceOnUse">
<stop stop-color="#E40303"/>
<stop offset="0.229211" stop-color="#FF8C00"/>
<stop offset="0.444575" stop-color="#FFED00"/>
<stop offset="0.639748" stop-color="#008026"/>
<stop offset="0.828191" stop-color="#004DFF"/>
<stop offset="1" stop-color="#750787"/>
</linearGradient>
<linearGradient id="paint3_linear_552_16" x1="-644.374" y1="1213.93" x2="24.8175" y2="746.329" gradientUnits="userSpaceOnUse">
<stop stop-color="#E40303"/>
<stop offset="0.229211" stop-color="#FF8C00"/>
<stop offset="0.444575" stop-color="#FFED00"/>
<stop offset="0.639748" stop-color="#008026"/>
<stop offset="0.828191" stop-color="#004DFF"/>
<stop offset="1" stop-color="#750787"/>
</linearGradient>
<linearGradient id="paint4_linear_552_16" x1="147.977" y1="1057.72" x2="-668.195" y2="1039.51" gradientUnits="userSpaceOnUse">
<stop stop-color="#E40303"/>
<stop offset="0.229211" stop-color="#FF8C00"/>
<stop offset="0.444575" stop-color="#FFED00"/>
<stop offset="0.639748" stop-color="#008026"/>
<stop offset="0.828191" stop-color="#004DFF"/>
<stop offset="1" stop-color="#750787"/>
</linearGradient>
<linearGradient id="paint5_linear_552_16" x1="1378.82" y1="160.764" x2="1697.61" y2="-74.6494" gradientUnits="userSpaceOnUse">
<stop stop-color="#E40303"/>
<stop offset="0.229211" stop-color="#FF8C00"/>
<stop offset="0.444575" stop-color="#FFED00"/>
<stop offset="0.639748" stop-color="#008026"/>
<stop offset="0.828191" stop-color="#004DFF"/>
<stop offset="1" stop-color="#750787"/>
</linearGradient>
<linearGradient id="paint6_linear_552_16" x1="1438.92" y1="-197.187" x2="1490.3" y2="195.756" gradientUnits="userSpaceOnUse">
<stop stop-color="#E40303"/>
<stop offset="0.229211" stop-color="#FF8C00"/>
<stop offset="0.444575" stop-color="#FFED00"/>
<stop offset="0.639748" stop-color="#008026"/>
<stop offset="0.828191" stop-color="#004DFF"/>
<stop offset="1" stop-color="#750787"/>
</linearGradient>
<linearGradient id="paint7_linear_552_16" x1="1641.43" y1="-127.267" x2="1336.8" y2="24.5735" gradientUnits="userSpaceOnUse">
<stop stop-color="#E40303"/>
<stop offset="0.229211" stop-color="#FF8C00"/>
<stop offset="0.444575" stop-color="#FFED00"/>
<stop offset="0.639748" stop-color="#008026"/>
<stop offset="0.828191" stop-color="#004DFF"/>
<stop offset="1" stop-color="#750787"/>
</linearGradient>
<linearGradient id="paint8_linear_552_16" x1="-124.005" y1="71.5239" x2="194.782" y2="-163.889" gradientUnits="userSpaceOnUse">
<stop stop-color="#E40303"/>
<stop offset="0.229211" stop-color="#FF8C00"/>
<stop offset="0.444575" stop-color="#FFED00"/>
<stop offset="0.639748" stop-color="#008026"/>
<stop offset="0.828191" stop-color="#004DFF"/>
<stop offset="1" stop-color="#750787"/>
</linearGradient>
<linearGradient id="paint9_linear_552_16" x1="-63.9069" y1="-286.426" x2="-12.5241" y2="106.517" gradientUnits="userSpaceOnUse">
<stop stop-color="#E40303"/>
<stop offset="0.229211" stop-color="#FF8C00"/>
<stop offset="0.444575" stop-color="#FFED00"/>
<stop offset="0.639748" stop-color="#008026"/>
<stop offset="0.828191" stop-color="#004DFF"/>
<stop offset="1" stop-color="#750787"/>
</linearGradient>
<linearGradient id="paint10_linear_552_16" x1="138.608" y1="-216.507" x2="-166.025" y2="-64.6662" gradientUnits="userSpaceOnUse">
<stop stop-color="#E40303"/>
<stop offset="0.229211" stop-color="#FF8C00"/>
<stop offset="0.444575" stop-color="#FFED00"/>
<stop offset="0.639748" stop-color="#008026"/>
<stop offset="0.828191" stop-color="#004DFF"/>
<stop offset="1" stop-color="#750787"/>
</linearGradient>
<clipPath id="clip0_552_16">
<rect width="1440" height="1024" fill="white"/>
</clipPath>
</defs>
</svg>
