<svg width="155" height="350" viewBox="0 0 155 350" fill="none" xmlns="http://www.w3.org/2000/svg">
<path fill-rule="evenodd" clip-rule="evenodd" d="M122.534 207.952C100.874 193.639 68.4609 186.492 62.1194 161.337C55.586 135.421 83.8604 114.235 92.5409 88.9781C99.1061 69.8757 92.619 45.7263 106.798 31.3407C120.909 17.0238 146.65 26.5876 164.02 16.4573C190.132 1.22813 201.287 -43.6566 231.456 -41.3632C259.136 -39.259 260.678 4.05181 278.699 25.175C296.428 45.9556 330.847 54.5228 336.113 81.3063C341.363 108.008 317.095 130.652 304.138 154.559C292.163 176.655 282.717 200.252 263.12 215.993C242.225 232.776 217.05 247.555 190.265 246.023C163.884 244.514 144.588 222.527 122.534 207.952Z" stroke="url(#paint0_linear_572_17)" stroke-width="2"/>
<path fill-rule="evenodd" clip-rule="evenodd" d="M132.865 31.9753C152.178 14.6244 167.265 -14.9398 193.207 -14.734C219.933 -14.522 233.306 18.1806 255.558 32.9487C272.388 44.1182 297.393 43.9296 307.739 61.2775C318.035 78.5426 302.29 101.041 307.714 120.403C315.867 149.511 356.489 171.623 346.663 200.239C337.648 226.495 295.348 217.066 270.363 229.179C245.784 241.096 228.815 272.243 201.569 270.586C174.406 268.934 158.613 239.74 138.745 221.175C120.383 204.016 99.9296 188.925 89.6383 165.992C78.666 141.541 70.7112 113.453 78.947 87.9197C87.0587 62.7711 113.201 49.6421 132.865 31.9753Z" stroke="url(#paint1_linear_572_17)" stroke-width="2"/>
<path fill-rule="evenodd" clip-rule="evenodd" d="M301.745 1.06893C325.307 11.97 358.426 14.1705 368.471 38.0889C378.82 62.7314 354.045 87.921 349.254 114.194C345.63 134.066 355.668 156.968 343.808 173.319C332.006 189.591 305.121 183.999 289.468 196.622C265.938 215.597 261.646 261.648 231.474 263.908C203.792 265.982 195.767 223.393 174.78 205.214C154.133 187.33 118.818 184.025 109.592 158.335C100.394 132.724 120.989 106.694 130.21 81.1135C138.734 57.4706 144.531 32.723 161.544 14.2192C179.683 -5.50937 202.355 -23.8999 229.066 -26.4053C255.375 -28.873 277.753 -10.0306 301.745 1.06893Z" stroke="url(#paint2_linear_572_17)" stroke-width="2"/>
<defs>
<linearGradient id="paint0_linear_572_17" x1="128.582" y1="215.642" x2="276.458" y2="-16.0427" gradientUnits="userSpaceOnUse">
<stop stop-color="#FDF435"/>
<stop offset="0.317708" stop-color="#FCFCFC"/>
<stop offset="0.677083" stop-color="#9C5CD4"/>
<stop offset="1" stop-color="#2C2C2C"/>
</linearGradient>
<linearGradient id="paint1_linear_572_17" x1="123.899" y1="35.8893" x2="310.814" y2="237.403" gradientUnits="userSpaceOnUse">
<stop stop-color="#FDF435"/>
<stop offset="0.317708" stop-color="#FCFCFC"/>
<stop offset="0.677083" stop-color="#9C5CD4"/>
<stop offset="1" stop-color="#2C2C2C"/>
</linearGradient>
<linearGradient id="paint2_linear_572_17" x1="294.611" y1="-5.62611" x2="183.182" y2="245.628" gradientUnits="userSpaceOnUse">
<stop stop-color="#FDF435"/>
<stop offset="0.317708" stop-color="#FCFCFC"/>
<stop offset="0.677083" stop-color="#9C5CD4"/>
<stop offset="1" stop-color="#2C2C2C"/>
</linearGradient>
</defs>
</svg>
