<svg width="416" height="56" viewBox="0 0 416 56" fill="none" xmlns="http://www.w3.org/2000/svg">
<g filter="url(#filter0_d_356_106)">
<mask id="path-1-outside-1_356_106" maskUnits="userSpaceOnUse" x="3" y="-1" width="410" height="51" fill="black">
<rect fill="white" x="3" y="-1" width="410" height="51"/>
<path d="M4 -3.8147e-06H38.24V5.376C29.664 3.52 23.2 1.024 9.312 1.024V20.672C11.552 17.984 14.944 16.96 18.08 17.6C21.28 18.24 24.16 20.48 27.488 20.928C29.472 21.248 31.84 21.248 32.352 18.56C33.376 23.168 31.392 25.664 28.256 26.112C22.112 26.88 17.312 19.712 12.384 20.288C10.848 20.48 9.312 21.376 9.312 23.232V48H4V-3.8147e-06ZM51.4195 16C59.8675 16 66.7155 23.168 66.7155 32C66.7155 40.832 59.8675 48 51.4195 48C43.0355 48 36.1875 40.832 36.1875 32C36.1875 23.168 43.0355 16 51.4195 16ZM51.4195 17.024C45.9795 17.024 41.4995 23.744 41.4995 32C41.4995 40.32 45.9795 47.04 51.4195 47.04C56.9235 47.04 61.4035 40.32 61.4035 32C61.4035 23.744 56.9235 17.024 51.4195 17.024ZM72.6875 16H77.9995V18.752C83.5035 16.192 91.8235 16 96.6875 16V21.376C92.8475 20.032 83.4395 17.024 77.9995 19.968V48H72.6875V16ZM139.625 28.096V48H134.312V28.096L118.312 -3.8147e-06H124.457L139.497 26.368C144.553 17.472 148.201 8.256 150.312 -3.8147e-06H155.625L139.625 28.096ZM163.482 16C171.93 16 178.778 23.168 178.778 32C178.778 40.832 171.93 48 163.482 48C155.098 48 148.25 40.832 148.25 32C148.25 23.168 155.098 16 163.482 16ZM163.482 17.024C158.042 17.024 153.562 23.744 153.562 32C153.562 40.32 158.042 47.04 163.482 47.04C168.986 47.04 173.466 40.32 173.466 32C173.466 23.744 168.986 17.024 163.482 17.024ZM213.625 48H208.313V45.248C204.345 46.848 198.777 48 193.977 48C189.113 48 184.312 46.976 184.312 40.896V16H189.625V40.896C189.625 44.8 191.737 46.4 194.361 46.784C198.521 47.424 204.729 45.184 208.313 42.56V16H213.625V48ZM219.938 16H225.25V18.752C230.754 16.192 239.074 16 243.938 16V21.376C240.098 20.032 230.69 17.024 225.25 19.968V48H219.938V16ZM271.195 -3.8147e-06L287.259 46.464C291.995 31.232 296.027 16.832 299.035 -3.8147e-06H304.347L287.771 48H282.139L265.562 -3.8147e-06H271.195ZM316.295 16C324.743 16 331.591 23.168 331.591 32C331.591 40.832 324.743 48 316.295 48C307.911 48 301.062 40.832 301.062 32C301.062 23.168 307.911 16 316.295 16ZM316.295 17.024C310.855 17.024 306.375 23.744 306.375 32C306.375 40.32 310.855 47.04 316.295 47.04C321.799 47.04 326.279 40.32 326.279 32C326.279 23.744 321.799 17.024 316.295 17.024ZM337.125 16H342.437V48H337.125V16ZM339.813 9.28C341.285 9.28 342.437 10.432 342.437 11.904C342.437 13.376 341.285 14.592 339.813 14.592C338.341 14.592 337.125 13.376 337.125 11.904C337.125 10.432 338.341 9.28 339.813 9.28ZM373.459 17.6C375.635 18.56 378.067 20.544 378.067 22.784C378.067 25.024 376.275 26.688 372.691 26.368C374.803 21.248 370.579 17.024 365.587 17.024C360.275 17.024 356.243 20.992 354.643 25.792C351.827 34.368 356.115 45.824 366.355 46.016C370.643 46.08 375.315 44.16 377.491 40.256L378.067 40.64C375.187 45.888 370.067 48 364.947 48C356.819 48 348.562 41.984 348.562 32C348.562 22.784 355.923 16 364.947 16C367.955 16 371.155 16.64 373.459 17.6ZM388.339 24.768C391.667 27.968 396.851 30.592 401.523 29.376C408.307 27.648 407.027 17.024 398.899 17.024C393.971 17.024 390.131 20.416 388.339 24.768ZM400.627 31.616C396.019 31.168 391.219 28.8 387.955 25.792C385.139 34.368 389.491 45.824 399.667 46.016C403.955 46.08 408.627 44.16 410.803 40.256L411.379 40.64C408.499 45.888 403.379 48 398.259 48C390.131 48 381.875 41.984 381.875 32C381.875 22.784 389.235 16 398.259 16C407.219 16 411.315 20.416 411.315 24.512C411.379 28.544 407.539 32.32 400.627 31.616Z"/>
</mask>
<path d="M4 -3.8147e-06H38.24V5.376C29.664 3.52 23.2 1.024 9.312 1.024V20.672C11.552 17.984 14.944 16.96 18.08 17.6C21.28 18.24 24.16 20.48 27.488 20.928C29.472 21.248 31.84 21.248 32.352 18.56C33.376 23.168 31.392 25.664 28.256 26.112C22.112 26.88 17.312 19.712 12.384 20.288C10.848 20.48 9.312 21.376 9.312 23.232V48H4V-3.8147e-06ZM51.4195 16C59.8675 16 66.7155 23.168 66.7155 32C66.7155 40.832 59.8675 48 51.4195 48C43.0355 48 36.1875 40.832 36.1875 32C36.1875 23.168 43.0355 16 51.4195 16ZM51.4195 17.024C45.9795 17.024 41.4995 23.744 41.4995 32C41.4995 40.32 45.9795 47.04 51.4195 47.04C56.9235 47.04 61.4035 40.32 61.4035 32C61.4035 23.744 56.9235 17.024 51.4195 17.024ZM72.6875 16H77.9995V18.752C83.5035 16.192 91.8235 16 96.6875 16V21.376C92.8475 20.032 83.4395 17.024 77.9995 19.968V48H72.6875V16ZM139.625 28.096V48H134.312V28.096L118.312 -3.8147e-06H124.457L139.497 26.368C144.553 17.472 148.201 8.256 150.312 -3.8147e-06H155.625L139.625 28.096ZM163.482 16C171.93 16 178.778 23.168 178.778 32C178.778 40.832 171.93 48 163.482 48C155.098 48 148.25 40.832 148.25 32C148.25 23.168 155.098 16 163.482 16ZM163.482 17.024C158.042 17.024 153.562 23.744 153.562 32C153.562 40.32 158.042 47.04 163.482 47.04C168.986 47.04 173.466 40.32 173.466 32C173.466 23.744 168.986 17.024 163.482 17.024ZM213.625 48H208.313V45.248C204.345 46.848 198.777 48 193.977 48C189.113 48 184.312 46.976 184.312 40.896V16H189.625V40.896C189.625 44.8 191.737 46.4 194.361 46.784C198.521 47.424 204.729 45.184 208.313 42.56V16H213.625V48ZM219.938 16H225.25V18.752C230.754 16.192 239.074 16 243.938 16V21.376C240.098 20.032 230.69 17.024 225.25 19.968V48H219.938V16ZM271.195 -3.8147e-06L287.259 46.464C291.995 31.232 296.027 16.832 299.035 -3.8147e-06H304.347L287.771 48H282.139L265.562 -3.8147e-06H271.195ZM316.295 16C324.743 16 331.591 23.168 331.591 32C331.591 40.832 324.743 48 316.295 48C307.911 48 301.062 40.832 301.062 32C301.062 23.168 307.911 16 316.295 16ZM316.295 17.024C310.855 17.024 306.375 23.744 306.375 32C306.375 40.32 310.855 47.04 316.295 47.04C321.799 47.04 326.279 40.32 326.279 32C326.279 23.744 321.799 17.024 316.295 17.024ZM337.125 16H342.437V48H337.125V16ZM339.813 9.28C341.285 9.28 342.437 10.432 342.437 11.904C342.437 13.376 341.285 14.592 339.813 14.592C338.341 14.592 337.125 13.376 337.125 11.904C337.125 10.432 338.341 9.28 339.813 9.28ZM373.459 17.6C375.635 18.56 378.067 20.544 378.067 22.784C378.067 25.024 376.275 26.688 372.691 26.368C374.803 21.248 370.579 17.024 365.587 17.024C360.275 17.024 356.243 20.992 354.643 25.792C351.827 34.368 356.115 45.824 366.355 46.016C370.643 46.08 375.315 44.16 377.491 40.256L378.067 40.64C375.187 45.888 370.067 48 364.947 48C356.819 48 348.562 41.984 348.562 32C348.562 22.784 355.923 16 364.947 16C367.955 16 371.155 16.64 373.459 17.6ZM388.339 24.768C391.667 27.968 396.851 30.592 401.523 29.376C408.307 27.648 407.027 17.024 398.899 17.024C393.971 17.024 390.131 20.416 388.339 24.768ZM400.627 31.616C396.019 31.168 391.219 28.8 387.955 25.792C385.139 34.368 389.491 45.824 399.667 46.016C403.955 46.08 408.627 44.16 410.803 40.256L411.379 40.64C408.499 45.888 403.379 48 398.259 48C390.131 48 381.875 41.984 381.875 32C381.875 22.784 389.235 16 398.259 16C407.219 16 411.315 20.416 411.315 24.512C411.379 28.544 407.539 32.32 400.627 31.616Z" fill="url(#paint0_linear_356_106)"/>
<path d="M4 -3.8147e-06V-1H3V-3.8147e-06H4ZM38.24 -3.8147e-06H39.24V-1H38.24V-3.8147e-06ZM38.24 5.376L38.0285 6.35337L39.24 6.61557V5.376H38.24ZM9.312 1.024V0.0239983H8.312V1.024H9.312ZM9.312 20.672H8.312V23.434L10.0802 21.3122L9.312 20.672ZM18.08 17.6L17.88 18.5798L17.8839 18.5806L18.08 17.6ZM27.488 20.928L27.6472 19.9408L27.6343 19.9387L27.6214 19.9369L27.488 20.928ZM32.352 18.56L33.3282 18.3431L31.3697 18.3729L32.352 18.56ZM28.256 26.112L28.38 27.1043L28.3887 27.1032L28.3974 27.1019L28.256 26.112ZM12.384 20.288L12.2679 19.2947L12.26 19.2957L12.384 20.288ZM9.312 48V49H10.312V48H9.312ZM4 48H3V49H4V48ZM4 0.999996H38.24V-1H4V0.999996ZM37.24 -3.8147e-06V5.376H39.24V-3.8147e-06H37.24ZM38.4515 4.39863C29.9605 2.56101 23.3396 0.0239983 9.312 0.0239983V2.024C23.0604 2.024 29.3675 4.47898 38.0285 6.35337L38.4515 4.39863ZM8.312 1.024V20.672H10.312V1.024H8.312ZM10.0802 21.3122C12.0723 18.9217 15.0855 18.0095 17.88 18.5798L18.28 16.6202C14.8025 15.9105 11.0317 17.0463 8.54378 20.0318L10.0802 21.3122ZM17.8839 18.5806C19.3469 18.8732 20.7507 19.5343 22.3233 20.2469C23.8503 20.9388 25.5264 21.673 27.3546 21.9191L27.6214 19.9369C26.1216 19.735 24.6937 19.1252 23.1487 18.4251C21.6493 17.7457 20.0131 16.9668 18.2761 16.6194L17.8839 18.5806ZM27.3288 21.9152C28.3447 22.0791 29.637 22.1977 30.7832 21.8224C31.3775 21.6278 31.9469 21.2962 32.409 20.7659C32.8701 20.2367 33.1793 19.5611 33.3343 18.7471L31.3697 18.3729C31.2687 18.9029 31.0899 19.2353 30.901 19.4521C30.7131 19.6678 30.4705 19.8202 30.1608 19.9216C29.499 20.1383 28.6153 20.0969 27.6472 19.9408L27.3288 21.9152ZM31.3758 18.7769C31.8523 20.9212 31.5935 22.4115 31.0084 23.3783C30.4336 24.3283 29.4482 24.9315 28.1146 25.122L28.3974 27.1019C30.1998 26.8445 31.7744 25.9757 32.7196 24.4137C33.6545 22.8685 33.8757 20.8068 33.3282 18.3431L31.3758 18.7769ZM28.132 25.1197C25.4634 25.4533 23.0208 24.0749 20.3961 22.4253C19.1323 21.6311 17.8124 20.7692 16.5024 20.157C15.1822 19.5401 13.7609 19.1203 12.2679 19.2948L12.5001 21.2812C13.4711 21.1677 14.4978 21.4279 15.6556 21.969C16.8237 22.5148 18.0117 23.2889 19.3319 24.1187C21.8752 25.7171 24.9046 27.5387 28.38 27.1043L28.132 25.1197ZM12.26 19.2957C11.3588 19.4084 10.3934 19.7331 9.63182 20.3678C8.84126 21.0266 8.312 21.9902 8.312 23.232H10.312C10.312 22.6178 10.5507 22.2054 10.9122 21.9042C11.3026 21.5789 11.8732 21.3596 12.508 21.2803L12.26 19.2957ZM8.312 23.232V48H10.312V23.232H8.312ZM9.312 47H4V49H9.312V47ZM5 48V-3.8147e-06H3V48H5ZM51.4195 17C59.2731 17 65.7155 23.6772 65.7155 32H67.7155C67.7155 22.6588 60.4619 15 51.4195 15V17ZM65.7155 32C65.7155 40.3228 59.2731 47 51.4195 47V49C60.4619 49 67.7155 41.3412 67.7155 32H65.7155ZM51.4195 47C43.6326 47 37.1875 40.3256 37.1875 32H35.1875C35.1875 41.3384 42.4384 49 51.4195 49V47ZM37.1875 32C37.1875 23.6744 43.6326 17 51.4195 17V15C42.4384 15 35.1875 22.6616 35.1875 32H37.1875ZM51.4195 16.024C48.2561 16.024 45.5024 17.9761 43.5863 20.863C41.664 23.7593 40.4995 27.7013 40.4995 32H42.4995C42.4995 28.0427 43.575 24.4967 45.2527 21.969C46.9366 19.4319 49.1429 18.024 51.4195 18.024V16.024ZM40.4995 32C40.4995 36.3293 41.6633 40.2871 43.5856 43.1919C45.5017 46.0874 48.2556 48.04 51.4195 48.04V46.04C49.1434 46.04 46.9373 44.6326 45.2534 42.0881C43.5757 39.5529 42.4995 35.9907 42.4995 32H40.4995ZM51.4195 48.04C54.6114 48.04 57.3819 46.0918 59.3083 43.1936C61.2397 40.2879 62.4035 36.3292 62.4035 32H60.4035C60.4035 35.9908 59.3273 39.5521 57.6427 42.0864C55.9531 44.6282 53.7316 46.04 51.4195 46.04V48.04ZM62.4035 32C62.4035 27.7014 61.239 23.7585 59.3076 20.8613C57.3812 17.9718 54.611 16.024 51.4195 16.024V18.024C53.732 18.024 55.9538 19.4362 57.6435 21.9707C59.328 24.4975 60.4035 28.0426 60.4035 32H62.4035ZM72.6875 16V15H71.6875V16H72.6875ZM77.9995 16H78.9995V15H77.9995V16ZM77.9995 18.752H76.9995V20.32L78.4212 19.6587L77.9995 18.752ZM96.6875 16H97.6875V15H96.6875V16ZM96.6875 21.376L96.3572 22.3199L97.6875 22.7855V21.376H96.6875ZM77.9995 19.968L77.5236 19.0885L76.9995 19.3721V19.968H77.9995ZM77.9995 48V49H78.9995V48H77.9995ZM72.6875 48H71.6875V49H72.6875V48ZM72.6875 17H77.9995V15H72.6875V17ZM76.9995 16V18.752H78.9995V16H76.9995ZM78.4212 19.6587C81.0275 18.4465 84.3573 17.7736 87.6919 17.4101C91.0129 17.0481 94.2657 17 96.6875 17V15C94.2454 15 90.9061 15.0479 87.4751 15.4219C84.0577 15.7944 80.4755 16.4975 77.5778 17.8453L78.4212 19.6587ZM95.6875 16V21.376H97.6875V16H95.6875ZM97.0179 20.4321C95.0828 19.7549 91.7022 18.6425 88.0988 18.0761C84.5388 17.5166 80.5461 17.4528 77.5236 19.0885L78.4754 20.8475C80.8929 19.5392 84.3242 19.5074 87.7882 20.0519C91.2088 20.5895 94.4522 21.6531 96.3572 22.3199L97.0179 20.4321ZM76.9995 19.968V48H78.9995V19.968H76.9995ZM77.9995 47H72.6875V49H77.9995V47ZM73.6875 48V16H71.6875V48H73.6875ZM139.624 28.096L138.756 27.6011L138.624 27.8312V28.096H139.624ZM139.624 48V49H140.624V48H139.624ZM134.312 48H133.312V49H134.312V48ZM134.312 28.096H135.312V27.8312L135.181 27.6011L134.312 28.096ZM118.312 -3.8147e-06V-1H116.592L117.444 0.494856L118.312 -3.8147e-06ZM124.456 -3.8147e-06L125.325 -0.495461L125.037 -1H124.456V-3.8147e-06ZM139.497 26.368L138.628 26.8635L139.498 28.3891L140.366 26.8621L139.497 26.368ZM150.312 -3.8147e-06V-1H149.536L149.344 -0.247837L150.312 -3.8147e-06ZM155.624 -3.8147e-06L156.493 0.494856L157.345 -1H155.624V-3.8147e-06ZM138.624 28.096V48H140.624V28.096H138.624ZM139.624 47H134.312V49H139.624V47ZM135.312 48V28.096H133.312V48H135.312ZM135.181 27.6011L119.181 -0.494863L117.444 0.494856L133.444 28.5909L135.181 27.6011ZM118.312 0.999996H124.456V-1H118.312V0.999996ZM123.588 0.495454L138.628 26.8635L140.365 25.8725L125.325 -0.495461L123.588 0.495454ZM140.366 26.8621C145.464 17.8917 149.146 8.59314 151.281 0.247829L149.344 -0.247837C147.255 7.91886 143.641 17.0523 138.627 25.8739L140.366 26.8621ZM150.312 0.999996H155.624V-1H150.312V0.999996ZM154.756 -0.494863L138.756 27.6011L140.493 28.5909L156.493 0.494856L154.756 -0.494863ZM163.482 17C171.336 17 177.778 23.6772 177.778 32H179.778C179.778 22.6588 172.524 15 163.482 15V17ZM177.778 32C177.778 40.3228 171.336 47 163.482 47V49C172.524 49 179.778 41.3412 179.778 32H177.778ZM163.482 47C155.695 47 149.25 40.3256 149.25 32H147.25C147.25 41.3384 154.501 49 163.482 49V47ZM149.25 32C149.25 23.6744 155.695 17 163.482 17V15C154.501 15 147.25 22.6616 147.25 32H149.25ZM163.482 16.024C160.319 16.024 157.565 17.9761 155.649 20.863C153.726 23.7593 152.562 27.7013 152.562 32H154.562C154.562 28.0427 155.638 24.4967 157.315 21.969C158.999 19.4319 161.205 18.024 163.482 18.024V16.024ZM152.562 32C152.562 36.3293 153.726 40.2871 155.648 43.1919C157.564 46.0874 160.318 48.04 163.482 48.04V46.04C161.206 46.04 159 44.6326 157.316 42.0881C155.638 39.5529 154.562 35.9907 154.562 32H152.562ZM163.482 48.04C166.674 48.04 169.444 46.0918 171.371 43.1936C173.302 40.2879 174.466 36.3292 174.466 32H172.466C172.466 35.9908 171.39 39.5521 169.705 42.0864C168.016 44.6282 165.794 46.04 163.482 46.04V48.04ZM174.466 32C174.466 27.7014 173.302 23.7585 171.37 20.8613C169.444 17.9718 166.674 16.024 163.482 16.024V18.024C165.794 18.024 168.016 19.4362 169.706 21.9707C171.39 24.4975 172.466 28.0426 172.466 32H174.466ZM213.624 48V49H214.624V48H213.624ZM208.312 48H207.312V49H208.312V48ZM208.312 45.248H209.312V43.7665L207.939 44.3206L208.312 45.248ZM184.312 16V15H183.312V16H184.312ZM189.624 16H190.624V15H189.624V16ZM194.361 46.784L194.513 45.7956L194.505 45.7945L194.361 46.784ZM208.312 42.56L208.903 43.3669L209.312 43.0672V42.56H208.312ZM208.312 16V15H207.312V16H208.312ZM213.624 16H214.624V15H213.624V16ZM213.624 47H208.312V49H213.624V47ZM209.312 48V45.248H207.312V48H209.312ZM207.939 44.3206C204.087 45.8737 198.646 47 193.977 47V49C198.907 49 204.602 47.8223 208.686 46.1754L207.939 44.3206ZM193.977 47C191.573 47 189.38 46.7383 187.81 45.8562C187.047 45.4273 186.439 44.8555 186.014 44.087C185.586 43.3137 185.312 42.284 185.312 40.896H183.312C183.312 42.548 183.639 43.9263 184.263 45.055C184.89 46.1885 185.786 47.0127 186.831 47.5998C188.877 48.7497 191.516 49 193.977 49V47ZM185.312 40.896V16H183.312V40.896H185.312ZM184.312 17H189.624V15H184.312V17ZM188.624 16V40.896H190.624V16H188.624ZM188.624 40.896C188.624 43.032 189.206 44.6712 190.271 45.8349C191.327 46.9899 192.751 47.5592 194.216 47.7735L194.505 45.7945C193.346 45.6248 192.402 45.2021 191.746 44.4851C191.099 43.7768 190.624 42.664 190.624 40.896H188.624ZM194.208 47.7724C196.504 48.1256 199.266 47.6794 201.858 46.8482C204.464 46.0126 207.012 44.7516 208.903 43.3669L207.722 41.7531C206.029 42.9924 203.681 44.1634 201.247 44.9438C198.799 45.7286 196.377 46.0824 194.513 45.7956L194.208 47.7724ZM209.312 42.56V16H207.312V42.56H209.312ZM208.312 17H213.624V15H208.312V17ZM212.624 16V48H214.624V16H212.624ZM219.938 16V15H218.938V16H219.938ZM225.249 16H226.249V15H225.249V16ZM225.249 18.752H224.249V20.32L225.671 19.6587L225.249 18.752ZM243.938 16H244.938V15H243.938V16ZM243.938 21.376L243.607 22.3199L244.938 22.7855V21.376H243.938ZM225.249 19.968L224.774 19.0885L224.249 19.3721V19.968H225.249ZM225.249 48V49H226.249V48H225.249ZM219.938 48H218.938V49H219.938V48ZM219.938 17H225.249V15H219.938V17ZM224.249 16V18.752H226.249V16H224.249ZM225.671 19.6587C228.277 18.4465 231.607 17.7736 234.942 17.4101C238.263 17.0481 241.516 17 243.938 17V15C241.495 15 238.156 15.0479 234.725 15.4219C231.308 15.7944 227.726 16.4975 224.828 17.8453L225.671 19.6587ZM242.938 16V21.376H244.938V16H242.938ZM244.268 20.4321C242.333 19.7549 238.952 18.6425 235.349 18.0761C231.789 17.5166 227.796 17.4528 224.774 19.0885L225.725 20.8475C228.143 19.5392 231.574 19.5074 235.038 20.0519C238.459 20.5895 241.702 21.6531 243.607 22.3199L244.268 20.4321ZM224.249 19.968V48H226.249V19.968H224.249ZM225.249 47H219.938V49H225.249V47ZM220.938 48V16H218.938V48H220.938ZM271.194 -3.8147e-06L272.14 -0.326757L271.907 -1H271.194V-3.8147e-06ZM287.259 46.464L286.313 46.7908L287.309 49.6701L288.213 46.7609L287.259 46.464ZM299.034 -3.8147e-06V-1H298.197L298.05 -0.175924L299.034 -3.8147e-06ZM304.346 -3.8147e-06L305.292 0.326414L305.75 -1H304.346V-3.8147e-06ZM287.771 48V49H288.483L288.716 48.3264L287.771 48ZM282.138 48L281.193 48.3264L281.426 49H282.138V48ZM265.562 -3.8147e-06V-1H264.159L264.617 0.326414L265.562 -3.8147e-06ZM270.249 0.326749L286.313 46.7908L288.204 46.1372L272.14 -0.326757L270.249 0.326749ZM288.213 46.7609C292.955 31.5106 297 17.0661 300.019 0.175916L298.05 -0.175924C295.052 16.5979 291.034 30.9534 286.304 46.1671L288.213 46.7609ZM299.034 0.999996H304.346V-1H299.034V0.999996ZM303.401 -0.326422L286.825 47.6736L288.716 48.3264L305.292 0.326414L303.401 -0.326422ZM287.771 47H282.138V49H287.771V47ZM283.084 47.6736L266.508 -0.326422L264.617 0.326414L281.193 48.3264L283.084 47.6736ZM265.562 0.999996H271.194V-1H265.562V0.999996ZM316.294 17C324.148 17 330.591 23.6772 330.591 32H332.591C332.591 22.6588 325.337 15 316.294 15V17ZM330.591 32C330.591 40.3228 324.148 47 316.294 47V49C325.337 49 332.591 41.3412 332.591 32H330.591ZM316.294 47C308.508 47 302.062 40.3256 302.062 32H300.062C300.062 41.3384 307.313 49 316.294 49V47ZM302.062 32C302.062 23.6744 308.508 17 316.294 17V15C307.313 15 300.062 22.6616 300.062 32H302.062ZM316.294 16.024C313.131 16.024 310.377 17.9761 308.461 20.863C306.539 23.7593 305.375 27.7013 305.375 32H307.375C307.375 28.0427 308.45 24.4967 310.128 21.969C311.812 19.4319 314.018 18.024 316.294 18.024V16.024ZM305.375 32C305.375 36.3293 306.538 40.2871 308.461 43.1919C310.377 46.0874 313.131 48.04 316.294 48.04V46.04C314.018 46.04 311.812 44.6326 310.128 42.0881C308.451 39.5529 307.375 35.9907 307.375 32H305.375ZM316.294 48.04C319.486 48.04 322.257 46.0918 324.183 43.1936C326.115 40.2879 327.279 36.3292 327.279 32H325.279C325.279 35.9908 324.202 39.5521 322.518 42.0864C320.828 44.6282 318.607 46.04 316.294 46.04V48.04ZM327.279 32C327.279 27.7014 326.114 23.7585 324.183 20.8613C322.256 17.9718 319.486 16.024 316.294 16.024V18.024C318.607 18.024 320.829 19.4362 322.518 21.9707C324.203 24.4975 325.279 28.0426 325.279 32H327.279ZM337.125 16V15H336.125V16H337.125ZM342.437 16H343.437V15H342.437V16ZM342.437 48V49H343.437V48H342.437ZM337.125 48H336.125V49H337.125V48ZM337.125 17H342.437V15H337.125V17ZM341.437 16V48H343.437V16H341.437ZM342.437 47H337.125V49H342.437V47ZM338.125 48V16H336.125V48H338.125ZM339.813 10.28C340.733 10.28 341.437 10.9843 341.437 11.904H343.437C343.437 9.87971 341.837 8.28 339.813 8.28V10.28ZM341.437 11.904C341.437 12.8554 340.702 13.592 339.813 13.592V15.592C341.868 15.592 343.437 13.8966 343.437 11.904H341.437ZM339.813 13.592C338.893 13.592 338.125 12.8237 338.125 11.904H336.125C336.125 13.9283 337.789 15.592 339.813 15.592V13.592ZM338.125 11.904C338.125 11.0154 338.862 10.28 339.813 10.28V8.28C337.82 8.28 336.125 9.84855 336.125 11.904H338.125ZM373.458 17.6L373.862 16.6851L373.853 16.6809L373.843 16.6769L373.458 17.6ZM372.69 26.368L371.766 25.9867L371.248 27.2432L372.602 27.364L372.69 26.368ZM354.642 25.792L353.694 25.4758L353.692 25.48L354.642 25.792ZM366.354 46.016L366.336 47.0158L366.34 47.0159L366.354 46.016ZM377.491 40.256L378.045 39.424L377.144 38.8233L376.617 39.7691L377.491 40.256ZM378.066 40.64L378.943 41.1211L379.385 40.3168L378.621 39.8079L378.066 40.64ZM373.055 18.5149C374.049 18.9535 375.089 19.6228 375.865 20.4127C376.652 21.2139 377.066 22.0318 377.066 22.784H379.066C379.066 21.2962 378.265 20.0021 377.292 19.0113C376.308 18.0092 375.044 17.2065 373.862 16.6851L373.055 18.5149ZM377.066 22.784C377.066 23.6177 376.745 24.2799 376.132 24.7291C375.493 25.1969 374.417 25.5182 372.779 25.372L372.602 27.364C374.548 27.5378 376.16 27.1871 377.313 26.3429C378.492 25.4801 379.066 24.1903 379.066 22.784H377.066ZM373.615 26.7493C374.816 23.8386 374.219 21.1102 372.57 19.1351C370.948 17.1924 368.353 16.024 365.586 16.024V18.024C367.812 18.024 369.825 18.9676 371.035 20.4169C372.218 21.8338 372.677 23.7774 371.766 25.9867L373.615 26.7493ZM365.586 16.024C359.72 16.024 355.386 20.3993 353.694 25.4758L355.591 26.1082C357.099 21.5847 360.829 18.024 365.586 18.024V16.024ZM353.692 25.48C352.203 30.0163 352.589 35.2989 354.71 39.4988C356.847 43.7308 360.784 46.9117 366.336 47.0158L366.373 45.0162C361.685 44.9283 358.358 42.2852 356.495 38.5972C354.616 34.8771 354.266 30.1437 355.593 26.104L353.692 25.48ZM366.34 47.0159C370.878 47.0836 375.958 45.0594 378.364 40.7429L376.617 39.7691C374.671 43.2606 370.407 45.0764 366.369 45.0161L366.34 47.0159ZM376.936 41.0881L377.512 41.472L378.621 39.8079L378.045 39.424L376.936 41.0881ZM377.19 40.1589C374.525 45.0151 369.791 47 364.947 47V49C370.342 49 375.848 46.7609 378.943 41.1211L377.19 40.1589ZM364.947 47C357.262 47 349.562 41.3288 349.562 32H347.562C347.562 42.6392 356.375 49 364.947 49V47ZM349.562 32C349.562 23.3748 356.435 17 364.947 17V15C355.41 15 347.562 22.1932 347.562 32H349.562ZM364.947 17C367.834 17 370.902 17.6182 373.074 18.5231L373.843 16.6769C371.407 15.6618 368.075 15 364.947 15V17ZM388.339 24.768L387.414 24.3872L387.155 25.0169L387.646 25.4888L388.339 24.768ZM401.523 29.376L401.276 28.4069L401.271 28.4082L401.523 29.376ZM400.627 31.616L400.728 30.6211L400.724 30.6207L400.627 31.616ZM387.955 25.792L388.633 25.0566L387.49 24.0034L387.005 25.48L387.955 25.792ZM399.667 46.016L399.648 47.0158L399.652 47.0159L399.667 46.016ZM410.803 40.256L411.358 39.424L410.457 38.8233L409.93 39.7691L410.803 40.256ZM411.379 40.64L412.256 41.1211L412.697 40.3168L411.934 39.8079L411.379 40.64ZM411.315 24.512H410.315V24.5199L410.315 24.5279L411.315 24.512ZM387.646 25.4888C391.079 28.7901 396.609 31.6883 401.775 30.3438L401.271 28.4082C397.093 29.4957 392.255 27.1459 389.032 24.0472L387.646 25.4888ZM401.77 30.3451C405.765 29.3274 407.346 25.6631 406.789 22.3845C406.226 19.0714 403.49 16.024 398.899 16.024V18.024C402.436 18.024 404.404 20.2886 404.817 22.7195C405.236 25.1849 404.065 27.6966 401.276 28.4069L401.77 30.3451ZM398.899 16.024C393.462 16.024 389.317 19.7668 387.414 24.3872L389.264 25.1488C390.945 21.0652 394.48 18.024 398.899 18.024V16.024ZM400.724 30.6207C396.357 30.1961 391.755 27.9343 388.633 25.0566L387.277 26.5274C390.683 29.6657 395.681 32.1399 400.53 32.6113L400.724 30.6207ZM387.005 25.48C385.515 30.0187 385.918 35.3017 388.047 39.5003C390.191 43.7292 394.127 46.9116 399.648 47.0158L399.686 45.0162C395.031 44.9284 391.702 42.2868 389.831 38.5957C387.944 34.8743 387.579 30.1413 388.905 26.104L387.005 25.48ZM399.652 47.0159C404.191 47.0836 409.271 45.0594 411.676 40.7429L409.93 39.7691C407.983 43.2606 403.719 45.0764 399.682 45.0161L399.652 47.0159ZM410.248 41.0881L410.824 41.472L411.934 39.8079L411.358 39.424L410.248 41.0881ZM410.502 40.1589C407.837 45.0151 403.104 47 398.259 47V49C403.654 49 409.161 46.7609 412.256 41.1211L410.502 40.1589ZM398.259 47C390.574 47 382.875 41.3288 382.875 32H380.875C380.875 42.6392 389.688 49 398.259 49V47ZM382.875 32C382.875 23.3748 389.748 17 398.259 17V15C388.722 15 380.875 22.1932 380.875 32H382.875ZM398.259 17C406.947 17 410.315 21.2122 410.315 24.512H412.315C412.315 19.6198 407.491 15 398.259 15V17ZM410.315 24.5279C410.342 26.2069 409.56 27.8617 407.988 29.0396C406.412 30.2196 403.988 30.9532 400.728 30.6211L400.526 32.6109C404.178 32.9828 407.13 32.1804 409.186 30.6404C411.246 29.0983 412.352 26.8491 412.315 24.4961L410.315 24.5279Z" fill="black" mask="url(#path-1-outside-1_356_106)"/>
</g>
<defs>
<filter id="filter0_d_356_106" x="0" y="0" width="415.379" height="56" filterUnits="userSpaceOnUse" color-interpolation-filters="sRGB">
<feFlood flood-opacity="0" result="BackgroundImageFix"/>
<feColorMatrix in="SourceAlpha" type="matrix" values="0 0 0 0 0 0 0 0 0 0 0 0 0 0 0 0 0 0 127 0" result="hardAlpha"/>
<feOffset dy="4"/>
<feGaussianBlur stdDeviation="2"/>
<feComposite in2="hardAlpha" operator="out"/>
<feColorMatrix type="matrix" values="0 0 0 0 0 0 0 0 0 0 0 0 0 0 0 0 0 0 0.25 0"/>
<feBlend mode="normal" in2="BackgroundImageFix" result="effect1_dropShadow_356_106"/>
<feBlend mode="normal" in="SourceGraphic" in2="effect1_dropShadow_356_106" result="shape"/>
</filter>
<linearGradient id="paint0_linear_356_106" x1="357" y1="0" x2="357" y2="143" gradientUnits="userSpaceOnUse">
<stop stop-color="#FDF435"/>
<stop offset="0.489583" stop-color="#9C5CD4"/>
<stop offset="1" stop-color="#2C2C2C"/>
</linearGradient>
</defs>
</svg>
