<svg width="480" height="434" viewBox="0 0 480 434" fill="none" xmlns="http://www.w3.org/2000/svg">
<path fill-rule="evenodd" clip-rule="evenodd" d="M246.184 39.1632C243.314 -20.8477 205.444 -79.0501 234.357 -133.773C269.219 -199.756 330.98 -266.074 410.773 -272.351C489.469 -278.541 541.434 -208.592 600.608 -162.584C655.681 -119.765 733.604 -85.0286 737.099 -18.6306C740.536 46.6813 664.674 88.1947 616.423 137.905C572.398 183.262 536.233 236.622 472.71 253.757C398.513 273.772 304.631 286.008 252.049 236.195C200.536 187.396 249.446 107.374 246.184 39.1632Z" stroke="url(#paint0_linear_119_548)" stroke-width="2"/>
<path fill-rule="evenodd" clip-rule="evenodd" d="M504.21 -213.992C561.096 -179.779 636.34 -175.433 670.176 -118.321C710.973 -49.4592 736.69 41.7149 696.819 111.118C657.497 179.567 563.375 179.646 487.168 200.24C416.244 219.407 339.687 262.279 276.564 224.687C214.474 187.71 219.658 100.063 201.5 30.1143C184.932 -33.7095 156.501 -95.9495 177.068 -158.599C201.09 -231.775 243.536 -316.389 319.473 -329.247C393.866 -341.843 439.551 -252.88 504.21 -213.992Z" stroke="url(#paint1_linear_119_548)" stroke-width="2"/>
<path fill-rule="evenodd" clip-rule="evenodd" d="M644.914 -21.7289C628.921 44.3001 645.371 118.838 602.067 169.615C549.853 230.838 473.032 284.377 398.403 267.317C324.8 250.492 299.153 158.979 259.517 91.309C222.628 28.3289 162.418 -32.7106 179.823 -105.863C196.942 -177.818 278.916 -200.2 338.281 -239.746C392.447 -275.83 441.933 -322.955 505.11 -322.556C578.901 -322.089 668.211 -307.285 700.663 -237.456C732.455 -169.047 663.092 -96.7801 644.914 -21.7289Z" stroke="url(#paint2_linear_119_548)" stroke-width="2"/>
<defs>
<linearGradient id="paint0_linear_119_548" x1="209.304" y1="21.1003" x2="734.676" y2="-40.7501" gradientUnits="userSpaceOnUse">
<stop offset="0.202744" stop-color="#D6006F"/>
<stop offset="0.536847" stop-color="#724E94"/>
<stop offset="0.819284" stop-color="#0038A7"/>
</linearGradient>
<linearGradient id="paint1_linear_119_548" x1="541.936" y1="-233.294" x2="298.313" y2="236.176" gradientUnits="userSpaceOnUse">
<stop offset="0.202744" stop-color="#D6006F"/>
<stop offset="0.536847" stop-color="#724E94"/>
<stop offset="0.819284" stop-color="#0038A7"/>
</linearGradient>
<linearGradient id="paint2_linear_119_548" x1="672.907" y1="8.92248" x2="175.171" y2="-81.1166" gradientUnits="userSpaceOnUse">
<stop offset="0.202744" stop-color="#D6006F"/>
<stop offset="0.536458" stop-color="#705092"/>
<stop offset="0.819284" stop-color="#0038A7"/>
</linearGradient>
</defs>
</svg>
