<svg width="512" height="532" viewBox="0 0 512 532" fill="none" xmlns="http://www.w3.org/2000/svg">
<path fill-rule="evenodd" clip-rule="evenodd" d="M97.7336 17.6828C88.0045 83.3478 112.904 154.486 73.1778 207.668C25.2778 271.793 -49.0157 330.569 -128.41 320.426C-206.714 310.423 -242.953 223.557 -291.248 161.114C-336.195 102.998 -405.192 48.7922 -394.74 -23.9294C-384.459 -95.4616 -301.548 -124.352 -243.946 -167.994C-191.388 -207.813 -144.851 -257.977 -79.1077 -263.062C-2.31881 -269 92.1084 -262.325 133.157 -197.158C173.372 -133.316 108.792 -56.9547 97.7336 17.6828Z" stroke="url(#paint0_linear_119_544)" stroke-width="2"/>
<path fill-rule="evenodd" clip-rule="evenodd" d="M95.9526 124.076C30.2469 141.349 -27.545 191.215 -92.7931 177.21C-171.466 160.323 -255.059 118.131 -275.476 44.3504C-295.613 -28.4171 -227.248 -94.4362 -186.509 -161.448C-148.594 -223.816 -123.458 -305.787 -50.8134 -325.2C20.6431 -344.295 79.2611 -282.775 142.25 -249.304C199.724 -218.763 264.694 -197.584 294.337 -141.792C328.961 -76.6262 358.333 9.00544 312.284 70.7195C267.17 131.179 170.636 104.442 95.9526 124.076Z" stroke="url(#paint1_linear_119_544)" stroke-width="2"/>
<path fill-rule="evenodd" clip-rule="evenodd" d="M-149.65 -164.681C-84.3905 -145.791 -9.19922 -158.937 39.6175 -113.435C98.4782 -58.5714 148.577 20.5361 128.242 94.3398C108.186 167.13 15.6317 188.715 -53.7212 225.328C-118.267 259.403 -181.903 316.861 -254.216 296.247C-325.347 275.971 -344.091 193.089 -380.98 132.038C-414.639 76.3334 -459.536 24.8163 -456.35 -38.281C-452.63 -111.98 -433.9 -200.55 -362.708 -229.891C-292.963 -258.634 -223.826 -186.151 -149.65 -164.681Z" stroke="url(#paint2_linear_119_544)" stroke-width="2"/>
<defs>
<linearGradient id="paint0_linear_119_544" x1="130.05" y1="45.0969" x2="-396.99" y2="0.563928" gradientUnits="userSpaceOnUse">
<stop stop-color="#724E94"/>
<stop offset="0.390625" stop-color="#D6006F"/>
<stop offset="0.819284" stop-color="#0038A7"/>
</linearGradient>
<linearGradient id="paint1_linear_119_544" x1="82.2663" y1="163.265" x2="-74.8011" y2="-317.545" gradientUnits="userSpaceOnUse">
<stop offset="0.202744" stop-color="#D6006F"/>
<stop offset="0.536458" stop-color="#705092"/>
<stop offset="0.819284" stop-color="#0038A7"/>
</linearGradient>
<linearGradient id="paint2_linear_119_544" x1="-117.794" y1="-191.294" x2="-229.699" y2="301.986" gradientUnits="userSpaceOnUse">
<stop offset="0.15625" stop-color="#D6006F"/>
<stop offset="0.40625" stop-color="#705092"/>
<stop offset="0.6875" stop-color="#0038A7"/>
</linearGradient>
</defs>
</svg>
