<svg width="787" height="359" viewBox="0 0 787 359" fill="none" xmlns="http://www.w3.org/2000/svg">
<path fill-rule="evenodd" clip-rule="evenodd" d="M494.338 183.285C452.668 191.038 414.819 165.415 378.861 142.99C335.18 115.747 283.527 92.2572 269.146 42.8406C252.887 -13.0321 267.104 -75.145 301.779 -121.889C337.895 -170.575 394.779 -217.15 454.577 -207.13C511.305 -197.624 520.751 -121.043 559.637 -78.681C588.122 -47.6498 643.763 -37.6412 648.565 4.19992C653.378 46.1335 608.319 73.4319 580.769 105.423C554.465 135.966 533.975 175.91 494.338 183.285Z" stroke="url(#paint0_linear_499_20)" stroke-width="2"/>
<path fill-rule="evenodd" clip-rule="evenodd" d="M177.213 -119.755C190.63 -159.96 231.388 -180.645 268.433 -201.226C313.434 -226.227 359.018 -260.02 409.211 -248.645C465.963 -235.783 513.399 -193.24 537.477 -140.253C562.554 -85.0642 575.719 -12.7336 537.969 34.7129C502.157 79.7232 430.595 50.8645 374.693 64.3426C333.744 74.2156 298.019 118.031 259.094 101.95C220.083 85.8336 218.048 33.1895 203.421 -6.41459C189.456 -44.2271 164.45 -81.5108 177.213 -119.755Z" stroke="url(#paint1_linear_499_20)" stroke-width="2"/>
<path fill-rule="evenodd" clip-rule="evenodd" d="M342.378 -188.102C378.781 -188.476 406.998 -161.181 434.089 -136.872C467 -107.342 507.211 -79.8029 512.043 -35.8624C517.505 13.8189 496.258 64.2558 459.985 98.6543C422.205 134.482 367.168 165.441 318.067 148.088C271.486 131.626 274.862 65.4373 248.252 23.8271C228.76 -6.65293 183.174 -23.3788 185.321 -59.4888C187.474 -95.6787 229.645 -112.085 257.701 -135.06C284.488 -156.995 307.75 -187.746 342.378 -188.102Z" stroke="url(#paint2_linear_499_20)" stroke-width="2"/>
<defs>
<linearGradient id="paint0_linear_499_20" x1="473.991" y1="185.643" x2="433.84" y2="-208.606" gradientUnits="userSpaceOnUse">
<stop stop-color="#E40303"/>
<stop offset="0.229211" stop-color="#FF8C00"/>
<stop offset="0.444575" stop-color="#FFED00"/>
<stop offset="0.639748" stop-color="#008026"/>
<stop offset="0.828191" stop-color="#004DFF"/>
<stop offset="1" stop-color="#750787"/>
</linearGradient>
<linearGradient id="paint1_linear_499_20" x1="185.013" y1="-138.695" x2="549.312" y2="17.2901" gradientUnits="userSpaceOnUse">
<stop stop-color="#E40303"/>
<stop offset="0.229211" stop-color="#FF8C00"/>
<stop offset="0.444575" stop-color="#FFED00"/>
<stop offset="0.639748" stop-color="#008026"/>
<stop offset="0.828191" stop-color="#004DFF"/>
<stop offset="1" stop-color="#750787"/>
</linearGradient>
<linearGradient id="paint2_linear_499_20" x1="359.941" y1="-187.077" x2="335.391" y2="152.415" gradientUnits="userSpaceOnUse">
<stop stop-color="#E40303"/>
<stop offset="0.229211" stop-color="#FF8C00"/>
<stop offset="0.444575" stop-color="#FFED00"/>
<stop offset="0.639748" stop-color="#008026"/>
<stop offset="0.828191" stop-color="#004DFF"/>
<stop offset="1" stop-color="#750787"/>
</linearGradient>
</defs>
</svg>
